<?xml version="1.0" encoding="UTF-8" standalone="no"?>
<svg width="27px" height="27px" viewBox="0 0 27 27" version="1.1" xmlns="http://www.w3.org/2000/svg" xmlns:xlink="http://www.w3.org/1999/xlink">
    <!-- Generator: Sketch 40.1 (33804) - http://www.bohemiancoding.com/sketch -->
    <title>fb-icon</title>
    <desc>Created with Sketch.</desc>
    <defs></defs>
    <g id="UI" stroke="none" stroke-width="1" fill="none" fill-rule="evenodd">
        <g id="Mobile-ULoad-Checkout-Flow-Checkout-16" transform="translate(-95.000000, -1770.000000)" fill="#FFFFFF">
            <g id="footer" transform="translate(0.000000, 1580.000000)">
                <g id="Group-5" transform="translate(95.000000, 190.000000)">
                    <g id="fb-icon">
                        <g id="Layer_1">
                            <path d="M13.5,0 C6,0 0,6 0,13.5 C0,21 6,27 13.5,27 C21,27 27,21 27,13.5 C27,6 21,0 13.5,0 L13.5,0 Z M16.4,13.5 L14.5,13.5 L14.5,20.2 L11.7,20.2 L11.7,13.5 L10.4,13.5 L10.4,11.1 L11.7,11.1 L11.7,9.6 C11.7,8.5 12.2,6.8 14.5,6.8 L16.6,6.8 L16.6,9.1 L15.1,9.1 C14.9,9.1 14.5,9.2 14.5,9.7 L14.5,11.1 L16.6,11.1 L16.4,13.5 L16.4,13.5 Z" id="Shape"></path>
                        </g>
                    </g>
                </g>
            </g>
        </g>
    </g>
</svg>