<?xml version="1.0" encoding="UTF-8" standalone="no"?>
<svg width="112px" height="39px" viewBox="0 0 112 39" version="1.1" xmlns="http://www.w3.org/2000/svg" xmlns:xlink="http://www.w3.org/1999/xlink">
    <!-- Generator: Sketch 40.1 (33804) - http://www.bohemiancoding.com/sketch -->
    <title>Page 1</title>
    <desc>Created with Sketch.</desc>
    <defs>
        <polygon id="path-1" points="100.464848 38.4887824 0 38.4887824 0 0.0255565515 100.464848 0.0255565515"></polygon>
        <polygon id="path-3" points="5.21673535 4.98037146 5.21673535 0.318610141 0.259110879 0.318610141 0.259110879 4.98037146 5.21673535 4.98037146"></polygon>
    </defs>
    <g id="UI" stroke="none" stroke-width="1" fill="none" fill-rule="evenodd">
        <g id="Mobile-ULoad-Checkout-Flow-Move-Information-5" transform="translate(-20.000000, -10.000000)">
            <g id="Page-1" transform="translate(20.000000, 10.000000)">
                <g id="Group-3" transform="translate(0.000000, 0.359370)">
                    <mask id="mask-2" fill="white">
                        <use xlink:href="#path-1"></use>
                    </mask>
                    <g id="Clip-2"></g>
                    <path d="M93.9436439,4.24777598 L50.2320066,0.0255565515 L6.52150713,4.24777598 C2.72000043,4.9963828 -7.5863235e-05,7.19524693 -7.5863235e-05,10.8651523 L-7.5863235e-05,17.3435842 L-7.5863235e-05,27.6485708 C-7.5863235e-05,31.3188611 2.72000043,33.5169554 6.52150713,34.266332 L50.2320066,38.4889363 L93.9436439,34.266332 C97.7447713,33.5169554 100.464848,31.3188611 100.464848,27.6485708 L100.464848,21.1701389 L100.464848,17.3435842 L100.464848,10.8651523 C100.464848,7.19524693 97.7447713,4.9963828 93.9436439,4.24777598" id="Fill-1" fill="#14499E" mask="url(#mask-2)"></path>
                </g>
                <path d="M20.3486438,12.6526484 L23.4097253,12.6526484 L23.4097253,27.4061684 L17.647154,27.4173302 L15.7445041,27.4181 C12.9318746,27.4181 11.0880187,27.1067257 10.2133156,26.4843621 C9.33899182,25.8627683 8.90201958,24.5510706 8.90201958,22.549269 L8.90201958,12.6526484 L11.9627218,12.6526484 L11.9839635,21.9723221 C11.9316179,22.8841214 12.1508626,23.6111745 12.8886326,24.1438592 C13.0460488,24.2308439 13.219017,24.3047423 13.4045026,24.3790257 C14.9892856,24.9609761 16.89497,24.9274908 18.5552369,24.4552335 C19.5513212,24.2624047 20.1627789,23.7258711 20.3232296,22.7417129 C20.3569887,22.4657483 20.3698855,22.1666905 20.3698855,21.8649384 L20.3486438,12.6526484 Z" id="Fill-4" fill="#FEFEFE"></path>
                <path d="M20.3486438,12.6526484 L23.4097253,12.6526484 L23.4097253,27.4061684 L17.647154,27.4173302 L15.7445041,27.4181 C12.9318746,27.4181 11.0880187,27.1067257 10.2133156,26.4843621 C9.33899182,25.8627683 8.90201958,24.5510706 8.90201958,22.549269 L8.90201958,12.6526484 L11.9627218,12.6526484 L11.9839635,21.9723221 C11.9316179,22.8841214 12.1508626,23.6111745 12.8886326,24.1438592 C13.0460488,24.2308439 13.219017,24.3047423 13.4045026,24.3790257 C14.9892856,24.9609761 16.89497,24.9274908 18.5552369,24.4552335 C19.5513212,24.2624047 20.1627789,23.7258711 20.3232296,22.7417129 C20.3569887,22.4657483 20.3698855,22.1666905 20.3698855,21.8649384 L20.3486438,12.6526484 L20.3486438,12.6526484 Z" id="Stroke-6" stroke="#FEFEFE"></path>
                <polygon id="Fill-8" fill="#FEFEFE" points="31.96835 12.8112222 31.96835 24.9609761 39.5322938 24.9609761 39.5322938 27.448891 28.9072684 27.448891 28.9072684 12.8112222"></polygon>
                <polygon id="Stroke-10" stroke="#FEFEFE" points="31.96835 12.8112222 31.96835 24.9609761 39.5322938 24.9609761 39.5322938 27.448891 28.9072684 27.448891 28.9072684 12.8112222"></polygon>
                <path d="M49.8048965,15.2594551 C51.7906167,15.2594551 52.9627037,15.4819203 53.3207782,15.928775 C53.6796113,16.37486 53.8529588,17.8243476 53.8529588,20.2764679 C53.8529588,22.7212754 53.6651972,24.1846189 53.287019,24.6672682 C52.9088408,25.1503024 51.7716509,25.3877782 49.8724148,25.3877782 C47.887074,25.3877782 46.6952625,25.1733957 46.2890149,24.7446306 C45.8835259,24.3154807 45.6805918,23.0557429 45.6805918,20.9534856 C45.6805918,18.1160925 45.8490081,16.4506829 46.1960824,15.9714976 C46.5423981,15.4919274 47.7486236,15.2594551 49.8048965,15.2594551 M50.0415898,12.8754599 C46.7479875,12.8754599 44.6727487,13.3196205 43.8299082,14.2137149 C42.9866883,15.1074244 42.5705784,17.3020548 42.5705784,20.7914478 C42.5705784,23.7223686 42.9961712,25.6152469 43.8545637,26.4770107 C44.7137148,27.3380048 46.611813,27.7721583 49.5431684,27.7721583 C52.7969425,27.7721583 54.849043,27.3318466 55.6960561,26.4596908 C56.5430691,25.587535 56.9633514,23.4748857 56.9633514,20.1221279 C56.9633514,17.0549568 56.5388966,15.0874103 55.6960561,14.2048625 C54.8528362,13.3219298 52.9721866,12.8754599 50.0415898,12.8754599" id="Fill-12" fill="#FEFEFE"></path>
                <path d="M49.8048965,15.2594551 C51.7906167,15.2594551 52.9627037,15.4819203 53.3207782,15.928775 C53.6796113,16.37486 53.8529588,17.8243476 53.8529588,20.2764679 C53.8529588,22.7212754 53.6651972,24.1846189 53.287019,24.6672682 C52.9088408,25.1503024 51.7716509,25.3877782 49.8724148,25.3877782 C47.887074,25.3877782 46.6952625,25.1733957 46.2890149,24.7446306 C45.8835259,24.3154807 45.6805918,23.0557429 45.6805918,20.9534856 C45.6805918,18.1160925 45.8490081,16.4506829 46.1960824,15.9714976 C46.5423981,15.4919274 47.7486236,15.2594551 49.8048965,15.2594551 L49.8048965,15.2594551 Z M50.0415898,12.8754599 C46.7479875,12.8754599 44.6727487,13.3196205 43.8299082,14.2137149 C42.9866883,15.1074244 42.5705784,17.3020548 42.5705784,20.7914478 C42.5705784,23.7223686 42.9961712,25.6152469 43.8545637,26.4770107 C44.7137148,27.3380048 46.611813,27.7721583 49.5431684,27.7721583 C52.7969425,27.7721583 54.849043,27.3318466 55.6960561,26.4596908 C56.5430691,25.587535 56.9633514,23.4748857 56.9633514,20.1221279 C56.9633514,17.0549568 56.5388966,15.0874103 55.6960561,14.2048625 C54.8528362,13.3219298 52.9721866,12.8754599 50.0415898,12.8754599 L50.0415898,12.8754599 Z" id="Stroke-14" stroke="#FEFEFE"></path>
                <path d="M67.7255754,15.0596214 L70.5154459,22.6838643 L64.978947,22.6838643 L67.7255754,15.0596214 Z M65.3851946,12.9069438 L60.0178708,27.5461521 L63.254955,27.5461521 L64.2609015,24.733007 L71.2251465,24.733007 L72.2474035,27.5461521 L75.4336594,27.5461521 L69.9825067,12.9069438 L65.3851946,12.9069438 Z" id="Fill-16" fill="#FEFEFE"></path>
                <path d="M67.7255754,15.0596214 L70.5154459,22.6838643 L64.978947,22.6838643 L67.7255754,15.0596214 L67.7255754,15.0596214 Z M65.3851946,12.9069438 L60.0178708,27.5461521 L63.254955,27.5461521 L64.2609015,24.733007 L71.2251465,24.733007 L72.2474035,27.5461521 L75.4336594,27.5461521 L69.9825067,12.9069438 L65.3851946,12.9069438 L65.3851946,12.9069438 Z" id="Stroke-18" stroke="#FEFEFE"></path>
                <path d="M81.9971948,15.1511477 L86.5444371,15.1511477 C87.9706659,15.1511477 88.8798868,15.4398135 89.2660306,16.0263826 C89.6525538,16.6125667 89.8406946,17.9831523 89.8406946,20.142373 C89.8406946,22.2300045 89.6278983,23.5786515 89.1988917,24.1902382 C88.7687471,24.8014401 87.8238705,25.1078108 86.3589515,25.1078108 L81.9971948,25.1078108 L81.9971948,15.1511477 Z M78.9380098,12.809875 L78.9380098,27.4490834 L86.958271,27.4490834 C89.5038619,27.4490834 91.1360594,26.9287151 91.8605533,25.8879784 C92.5861851,24.8480115 92.9510873,22.5005807 92.9510873,18.8472254 C92.9510873,16.6094876 92.5012183,15.0414546 91.5984458,14.14813 C90.6964319,13.2544205 89.1192353,12.809875 86.8660972,12.809875 L78.9380098,12.809875 Z" id="Fill-20" fill="#FEFEFE"></path>
                <path d="M81.9971948,15.1511477 L86.5444371,15.1511477 C87.9706659,15.1511477 88.8798868,15.4398135 89.2660306,16.0263826 C89.6525538,16.6125667 89.8406946,17.9831523 89.8406946,20.142373 C89.8406946,22.2300045 89.6278983,23.5786515 89.1988917,24.1902382 C88.7687471,24.8014401 87.8238705,25.1078108 86.3589515,25.1078108 L81.9971948,25.1078108 L81.9971948,15.1511477 L81.9971948,15.1511477 Z M78.9380098,12.809875 L78.9380098,27.4490834 L86.958271,27.4490834 C89.5038619,27.4490834 91.1360594,26.9287151 91.8605533,25.8879784 C92.5861851,24.8480115 92.9510873,22.5005807 92.9510873,18.8472254 C92.9510873,16.6094876 92.5012183,15.0414546 91.5984458,14.14813 C90.6964319,13.2544205 89.1192353,12.809875 86.8660972,12.809875 L78.9380098,12.809875 L78.9380098,12.809875 Z" id="Stroke-22" stroke="#FEFEFE"></path>
                <polygon id="Fill-24" fill="#14499E" points="104.408446 8.71513046 103.000424 8.71513046 103.000424 7.99077158 106.634273 7.99077158 106.634273 8.71513046 105.226252 8.71513046 105.226252 12.6525329 104.408446 12.6525329"></polygon>
                <g id="Group-28" transform="translate(106.587845, 7.672238)">
                    <mask id="mask-4" fill="white">
                        <use xlink:href="#path-3"></use>
                    </mask>
                    <g id="Clip-27"></g>
                    <polygon id="Fill-26" fill="#14499E" mask="url(#mask-4)" points="0.259110879 0.318610141 1.53740639 0.318610141 2.73187302 3.63056987 2.75083883 3.63056987 3.9320294 0.318610141 5.21677329 0.318610141 5.21677329 4.98037146 4.4057953 4.98037146 4.4057953 1.23387339 4.39251924 1.23387339 2.99777366 4.98037146 2.4265235 4.98037146 1.05074374 1.23387339 1.03784699 1.23387339 1.03784699 4.98037146 0.259110879 4.98037146"></polygon>
                </g>
            </g>
        </g>
    </g>
</svg>