<?xml version="1.0" encoding="UTF-8" standalone="no"?>
<svg width="27px" height="27px" viewBox="0 0 27 27" version="1.1" xmlns="http://www.w3.org/2000/svg" xmlns:xlink="http://www.w3.org/1999/xlink">
    <!-- Generator: Sketch 40.1 (33804) - http://www.bohemiancoding.com/sketch -->
    <title>twitter-icon</title>
    <desc>Created with Sketch.</desc>
    <defs></defs>
    <g id="UI" stroke="none" stroke-width="1" fill="none" fill-rule="evenodd">
        <g id="Mobile-ULoad-Checkout-Flow-Move-Information-5" transform="translate(-137.000000, -1350.000000)" fill="#FFFFFF">
            <g id="footer" transform="translate(0.000000, 1160.000000)">
                <g id="Group-5" transform="translate(95.000000, 190.000000)">
                    <g id="twitter-icon" transform="translate(42.000000, 0.000000)">
                        <g id="Layer_1">
                            <path d="M13.5,0 C6,0 0,6 0,13.5 C0,21 6,27 13.5,27 C21,27 27,21 27,13.5 C27,6 21,0 13.5,0 M18.9,10.7 L18.9,11.1 C18.9,14.8 16.1,19 11,19 C9.4,19 8,18.5 6.8,17.8 L7.5,17.8 C8.8,17.8 10,17.4 10.9,16.6 C9.7,16.6 8.7,15.8 8.3,14.7 L8.8,14.7 C9.1,14.7 9.3,14.7 9.5,14.6 C8.2,14.3 7.3,13.2 7.3,11.9 L7.3,11.9 C7.7,12.1 8.1,12.2 8.6,12.2 C7.9,11.7 7.4,10.9 7.4,9.9 C7.4,9.4 7.5,8.9 7.8,8.5 C9.2,10.2 11.2,11.3 13.5,11.4 C13.5,11.2 13.4,11 13.4,10.8 C13.4,9.3 14.6,8 16.2,8 C17,8 17.7,8.3 18.2,8.9 C18.8,8.8 19.4,8.5 20,8.2 C19.8,8.8 19.4,9.4 18.8,9.7 C19.4,9.6 19.9,9.5 20.4,9.3 C19.9,9.9 19.4,10.4 18.9,10.7" id="Shape"></path>
                        </g>
                    </g>
                </g>
            </g>
        </g>
    </g>
</svg>