<?xml version="1.0" encoding="UTF-8" standalone="no"?>
<svg width="110px" height="38px" viewBox="0 0 110 38" version="1.1" xmlns="http://www.w3.org/2000/svg" xmlns:xlink="http://www.w3.org/1999/xlink">
    <!-- Generator: Sketch 40.1 (33804) - http://www.bohemiancoding.com/sketch -->
    <title>Uload-Logo-Footer</title>
    <desc>Created with Sketch.</desc>
    <defs></defs>
    <g id="UI" stroke="none" stroke-width="1" fill="none" fill-rule="evenodd">
        <g id="Mobile-ULoad-Checkout-Flow-Move-Information-5" transform="translate(-152.000000, -1190.000000)">
            <g id="footer" transform="translate(0.000000, 1160.000000)">
                <g id="Uload-Logo-Footer" transform="translate(152.000000, 30.000000)">
                    <g id="Layer_1">
                        <path d="M93.2638037,4.13928571 L49.8711656,0 L6.47852761,4.13928571 C2.6993865,4.88571429 0,7.05714286 0,10.7214286 L0,17.1 L0,27.2785714 C0,30.875 2.6993865,33.0464286 6.47852761,33.7928571 L49.8711656,38 L93.2638037,33.8607143 C97.0429448,33.1142857 99.7423313,30.9428571 99.7423313,27.3464286 L99.7423313,20.9678571 L99.7423313,17.1678571 L99.7423313,10.7892857 C99.7423313,7.05714286 97.0429448,4.88571429 93.2638037,4.13928571 L93.2638037,4.13928571 Z" id="Shape" fill="#FFFFFF"></path>
                        <path d="M19.8404908,11.8071429 L19.8404908,21.2392857 C19.8404908,21.5785714 19.8404908,21.85 19.7730061,22.0535714 C19.6380368,22.8678571 19.1656442,23.275 18.2883436,23.4785714 C16.601227,23.9535714 14.7791411,23.9535714 13.3619632,23.4107143 C13.1595092,23.3428571 13.0245399,23.275 12.8895706,23.2071429 C12.2822086,22.8 12.0797546,22.2571429 12.1472393,21.3071429 L12.1472393,11.7392857 L8.43558282,11.7392857 L8.43558282,21.85 C8.43558282,23.9535714 8.90797546,25.3107143 9.85276074,25.9892857 C10.797546,26.6678571 12.6196319,26.9392857 15.5214724,26.9392857 L17.5460123,26.9392857 L23.6196319,26.9392857 L23.6196319,11.8071429 L19.8404908,11.8071429 L19.8404908,11.8071429 Z" id="Shape" fill="#0D47A1"></path>
                        <polygon id="Shape" fill="#0D47A1" points="32.0552147 23.9535714 32.0552147 11.9428571 28.3435583 11.9428571 28.3435583 27.075 39.6134969 27.075 39.6134969 23.9535714"></polygon>
                        <path d="M55.5398773,13.4357143 C54.595092,12.4857143 52.7055215,12.0107143 49.6687117,12.0107143 C46.2944785,12.0107143 44.1349693,12.4857143 43.2576687,13.4357143 C42.3803681,14.3857143 41.9079755,16.625 41.9079755,20.1535714 C41.9079755,23.1392857 42.3803681,25.1071429 43.2576687,25.9892857 C44.202454,26.9392857 46.0920245,27.3464286 49.1288344,27.3464286 C52.5030675,27.3464286 54.5276074,26.8714286 55.4723926,25.9214286 C56.4171779,24.9714286 56.8220859,22.8678571 56.8220859,19.4071429 C56.8895706,16.3535714 56.4171779,14.3857143 55.5398773,13.4357143 L55.5398773,13.4357143 Z M46.1595092,15.6071429 C46.2944785,15.4035714 46.8343558,15.0642857 49.4662577,15.0642857 C51.9631902,15.0642857 52.5705521,15.4714286 52.7055215,15.6071429 C52.9079755,15.8107143 53.1779141,16.625 53.1779141,19.6785714 C53.1779141,22.7321429 52.8404908,23.5464286 52.7055215,23.8178571 C52.5030675,24.0214286 51.8957055,24.4285714 49.601227,24.4285714 C47.1717791,24.4285714 46.4969325,24.0892857 46.2944785,23.8857143 C46.0920245,23.6821429 45.7546012,22.9357143 45.7546012,20.3571429 C45.6871166,16.7607143 45.9570552,15.8107143 46.1595092,15.6071429 L46.1595092,15.6071429 Z" id="Shape" fill="#0D47A1"></path>
                        <path d="M69.7116564,12.0107143 L64.6503067,12.0107143 L59.1165644,27.1428571 L63.0306748,27.1428571 L64.0429448,24.3607143 L70.4539877,24.3607143 L71.4662577,27.1428571 L75.3803681,27.1428571 L69.7116564,12.0107143 L69.7116564,12.0107143 Z M69.5092025,21.7142857 L64.9877301,21.7142857 L67.2147239,15.5392857 L69.5092025,21.7142857 L69.5092025,21.7142857 Z" id="Shape" fill="#0D47A1"></path>
                        <path d="M91.1717791,13.3678571 C90.2269939,12.4178571 88.607362,11.9428571 86.2453988,11.9428571 L78.0122699,11.9428571 L78.0122699,27.075 L86.3128834,27.075 C89.0122699,27.075 90.6319018,26.5321429 91.4417178,25.3785714 C92.1840491,24.2928571 92.5889571,21.9178571 92.5889571,18.2535714 C92.5889571,15.9464286 92.1165644,14.3178571 91.1717791,13.3678571 L91.1717791,13.3678571 Z M81.7239264,14.9285714 L85.9079755,14.9285714 C87.190184,14.9285714 88,15.2 88.3374233,15.675 C88.5398773,16.0142857 88.8773006,16.9642857 88.8773006,19.5428571 C88.8773006,21.9857143 88.5398773,23.0035714 88.2699387,23.3428571 C87.9325153,23.8178571 87.0552147,24.0892857 85.7055215,24.0892857 L81.7239264,24.0892857 L81.7239264,14.9285714 L81.7239264,14.9285714 Z" id="Shape" fill="#0D47A1"></path>
                        <g id="Group" transform="translate(101.901840, 7.464286)" fill="#FFFFFF">
                            <polygon id="Shape" points="3.50920245 0.135714286 0 0.135714286 0 0.95 1.28220859 0.95 1.28220859 4.81785714 2.22699387 4.81785714 2.22699387 0.95 3.50920245 0.95"></polygon>
                            <path d="M7.82822086,0.135714286 L6.81595092,0.135714286 L6.00613497,2.375 C5.87116564,2.71428571 5.80368098,3.05357143 5.66871166,3.325 C5.60122699,3.05357143 5.46625767,2.78214286 5.39877301,2.375 L4.58895706,0.135714286 L3.57668712,0.135714286 L3.2392638,4.88571429 L4.11656442,4.88571429 L4.25153374,2.85 C4.25153374,2.57857143 4.25153374,2.23928571 4.3190184,1.96785714 C4.38650307,2.17142857 4.45398773,2.44285714 4.52147239,2.64642857 L5.26380368,4.81785714 L5.93865031,4.81785714 L6.74846626,2.57857143 C6.81595092,2.30714286 6.95092025,2.10357143 7.01840491,1.83214286 C7.01840491,2.10357143 7.01840491,2.375 7.08588957,2.64642857 L7.2208589,4.81785714 L8.09815951,4.81785714 L7.82822086,0.135714286 L7.82822086,0.135714286 Z" id="Shape"></path>
                        </g>
                    </g>
                </g>
            </g>
        </g>
    </g>
</svg>