<?xml version="1.0" encoding="UTF-8" standalone="no"?>
<svg width="23px" height="13px" viewBox="0 0 23 13" version="1.1" xmlns="http://www.w3.org/2000/svg" xmlns:xlink="http://www.w3.org/1999/xlink">
    <!-- Generator: Sketch 40.1 (33804) - http://www.bohemiancoding.com/sketch -->
    <title>Page 1</title>
    <desc>Created with Sketch.</desc>
    <defs>
        <polygon id="path-1" points="0 12.7414061 0 7.95918368e-05 22.7671305 7.95918368e-05 22.7671305 12.7414061"></polygon>
    </defs>
    <g id="UI" stroke="none" stroke-width="1" fill="none" fill-rule="evenodd">
        <g id="Desktop-HD-ULoad-Checkout-Flow-Move-Information-5" transform="translate(-895.000000, -406.000000)">
            <g id="Page-1" transform="translate(895.000000, 406.000000)">
                <mask id="mask-2" fill="white">
                    <use xlink:href="#path-1"></use>
                </mask>
                <g id="Clip-2"></g>
                <path d="M16.0229629,0.000424489796 C15.7376596,0.0110367347 15.5146371,0.25697551 15.5249742,0.549873469 C15.5301427,0.695526531 15.5934573,0.832689796 15.6999292,0.928995918 L20.9167944,5.84538367 L0.541637079,5.84538367 L0.493052809,5.84538367 C0.222479775,5.85838367 -0.0121719101,6.12315918 0.000491011236,6.40093469 C0.0131539326,6.6787102 0.270805618,6.91987347 0.541637079,6.90660816 L20.9167944,6.90660816 L15.6999292,11.8147714 C15.4872438,12.0108327 15.4696708,12.3467102 15.6603899,12.5650571 C15.8513674,12.7834041 16.178536,12.8014449 16.3912213,12.605649 C16.3922551,12.6045878 16.3932888,12.6035265 16.3943225,12.6024653 L22.5965697,6.76573061 C22.8084798,6.56940408 22.8252775,6.23379184 22.6337831,6.01624082 C22.6221539,6.00297551 22.6097494,5.99024082 22.5965697,5.97803673 L16.3943225,0.141302041 C16.2937944,0.0455265306 16.1601876,-0.00514693878 16.0229629,0.000424489796" id="Fill-1" fill="#B20707" mask="url(#mask-2)"></path>
            </g>
        </g>
    </g>
</svg>