<?xml version="1.0" encoding="UTF-8" standalone="no"?>
<svg width="10px" height="8px" viewBox="0 0 10 8" version="1.1" xmlns="http://www.w3.org/2000/svg" xmlns:xlink="http://www.w3.org/1999/xlink">
    <!-- Generator: Sketch 40.1 (33804) - http://www.bohemiancoding.com/sketch -->
    <title>check-mark-icon</title>
    <desc>Created with Sketch.</desc>
    <defs></defs>
    <g id="UI" stroke="none" stroke-width="1" fill="none" fill-rule="evenodd">
        <g id="Desktop-HD-ULoad-Checkout-Flow-Checkout-12" transform="translate(-422.000000, -802.000000)" fill="#4FA0E8">
            <path d="M431.739677,803.45781 C431.739677,803.625375 431.68103,803.767803 431.563734,803.885099 L427.014363,808.43447 L426.159785,809.289048 C426.042489,809.406344 425.900061,809.464991 425.732496,809.464991 C425.56493,809.464991 425.422502,809.406344 425.305206,809.289048 L424.450628,808.43447 L422.175943,806.159785 C422.058647,806.042489 422,805.900061 422,805.732496 C422,805.56493 422.058647,805.422502 422.175943,805.305206 L423.030521,804.450628 C423.147816,804.333333 423.290245,804.274686 423.45781,804.274686 C423.625375,804.274686 423.767803,804.333333 423.885099,804.450628 L425.732496,806.304309 L429.854578,802.175943 C429.971874,802.058647 430.114302,802 430.281867,802 C430.449432,802 430.591861,802.058647 430.709156,802.175943 L431.563734,803.030521 C431.68103,803.147816 431.739677,803.290245 431.739677,803.45781 L431.739677,803.45781 Z" id="check-mark-icon"></path>
        </g>
    </g>
</svg>