<?xml version="1.0" encoding="UTF-8" standalone="no"?>
<svg width="14px" height="14px" viewBox="0 0 14 14" version="1.1" xmlns="http://www.w3.org/2000/svg" xmlns:xlink="http://www.w3.org/1999/xlink">
    <!-- Generator: Sketch 40.1 (33804) - http://www.bohemiancoding.com/sketch -->
    <title>info-icon</title>
    <desc>Created with Sketch.</desc>
    <defs></defs>
    <g id="UI" stroke="none" stroke-width="1" fill="none" fill-rule="evenodd">
        <g id="Desktop-HD-ULoad-Checkout-Flow-Checkout-15" transform="translate(-735.000000, -706.000000)" fill="#B6B6B6">
            <path d="M743.166667,717.375 L743.166667,715.625 C743.166667,715.53993 743.139323,715.470052 743.084635,715.415365 C743.029948,715.360677 742.96007,715.333333 742.875,715.333333 L741.125,715.333333 C741.03993,715.333333 740.970052,715.360677 740.915365,715.415365 C740.860677,715.470052 740.833333,715.53993 740.833333,715.625 L740.833333,717.375 C740.833333,717.46007 740.860677,717.529948 740.915365,717.584635 C740.970052,717.639323 741.03993,717.666667 741.125,717.666667 L742.875,717.666667 C742.96007,717.666667 743.029948,717.639323 743.084635,717.584635 C743.139323,717.529948 743.166667,717.46007 743.166667,717.375 L743.166667,717.375 Z M745.5,711.25 C745.5,710.715275 745.331382,710.220054 744.994141,709.764323 C744.656899,709.308591 744.236114,708.956164 743.731771,708.707031 C743.227428,708.457898 742.71094,708.333333 742.182292,708.333333 C740.705722,708.333333 739.578563,708.980462 738.800781,710.27474 C738.709635,710.420574 738.73394,710.548177 738.873698,710.657552 L740.076823,711.56901 C740.119358,711.605469 740.177083,711.623698 740.25,711.623698 C740.347223,711.623698 740.423177,711.58724 740.477865,711.514323 C740.799915,711.101126 741.061197,710.821615 741.261719,710.675781 C741.468317,710.529947 741.729599,710.457031 742.045573,710.457031 C742.337241,710.457031 742.597004,710.536024 742.82487,710.69401 C743.052736,710.851997 743.166667,711.031249 743.166667,711.231771 C743.166667,711.462675 743.105903,711.648003 742.984375,711.78776 C742.862847,711.927518 742.656251,712.064235 742.364583,712.197917 C741.981769,712.368056 741.630861,712.630858 741.311849,712.986328 C740.992837,713.341799 740.833333,713.723088 740.833333,714.130208 L740.833333,714.458333 C740.833333,714.543403 740.860677,714.613281 740.915365,714.667969 C740.970052,714.722657 741.03993,714.75 741.125,714.75 L742.875,714.75 C742.96007,714.75 743.029948,714.722657 743.084635,714.667969 C743.139323,714.613281 743.166667,714.543403 743.166667,714.458333 C743.166667,714.342881 743.231987,714.192492 743.36263,714.007161 C743.493273,713.821831 743.658853,713.671442 743.859375,713.55599 C744.05382,713.446614 744.20269,713.360026 744.30599,713.296224 C744.409289,713.232422 744.549044,713.126086 744.72526,712.977214 C744.901477,712.828341 745.036675,712.682509 745.130859,712.539714 C745.225044,712.396918 745.310112,712.213109 745.386068,711.988281 C745.462023,711.763454 745.5,711.517362 745.5,711.25 L745.5,711.25 Z M749,713 C749,714.269972 748.687069,715.441184 748.061198,716.513672 C747.435327,717.58616 746.58616,718.435327 745.513672,719.061198 C744.441184,719.687069 743.269972,720 742,720 C740.730028,720 739.558816,719.687069 738.486328,719.061198 C737.41384,718.435327 736.564673,717.58616 735.938802,716.513672 C735.312931,715.441184 735,714.269972 735,713 C735,711.730028 735.312931,710.558816 735.938802,709.486328 C736.564673,708.41384 737.41384,707.564673 738.486328,706.938802 C739.558816,706.312931 740.730028,706 742,706 C743.269972,706 744.441184,706.312931 745.513672,706.938802 C746.58616,707.564673 747.435327,708.41384 748.061198,709.486328 C748.687069,710.558816 749,711.730028 749,713 L749,713 Z" id="info-icon"></path>
        </g>
    </g>
</svg>