<?xml version="1.0" encoding="UTF-8" standalone="no"?>
<svg width="15px" height="17px" viewBox="0 0 15 17" version="1.1" xmlns="http://www.w3.org/2000/svg" xmlns:xlink="http://www.w3.org/1999/xlink">
    <!-- Generator: Sketch 40.1 (33804) - http://www.bohemiancoding.com/sketch -->
    <title>phone-icon</title>
    <desc>Created with Sketch.</desc>
    <defs></defs>
    <g id="UI" stroke="none" stroke-width="1" fill="none" fill-rule="evenodd">
        <g id="Desktop-HD-ULoad-Checkout-Flow-Move-Information-1" transform="translate(-1283.000000, -26.000000)" fill="#1E88E5">
            <path d="M1297.96429,38.8616071 C1297.96429,39.0524563 1297.92894,39.3016168 1297.85826,39.609096 C1297.78757,39.9165752 1297.71336,40.1586673 1297.6356,40.3353795 C1297.48716,40.6888039 1297.05599,41.0634281 1296.34208,41.4592634 C1295.67764,41.8197563 1295.02028,42 1294.36998,42 C1294.17913,42 1293.99358,41.9876303 1293.81334,41.9628906 C1293.63309,41.9381509 1293.42987,41.8939735 1293.20368,41.8303571 C1292.97749,41.7667408 1292.80962,41.715495 1292.70006,41.6766183 C1292.59049,41.6377416 1292.39435,41.5652907 1292.11161,41.4592634 C1291.82887,41.3532361 1291.65569,41.2896206 1291.59208,41.2684152 C1290.89936,41.0210181 1290.28088,40.7276803 1289.73661,40.3883929 C1288.83184,39.8299823 1287.89705,39.0683642 1286.9322,38.1035156 C1285.96735,37.1386671 1285.20573,36.2038736 1284.64732,35.2991071 C1284.30803,34.7548336 1284.0147,34.1363502 1283.7673,33.4436384 C1283.74609,33.380022 1283.68248,33.2068467 1283.57645,32.9241071 C1283.47042,32.6413676 1283.39797,32.44522 1283.3591,32.3356585 C1283.32022,32.2260969 1283.26897,32.0582229 1283.20536,31.8320313 C1283.14174,31.6058396 1283.09756,31.4026237 1283.07282,31.2223772 C1283.04808,31.0421308 1283.03571,30.8565858 1283.03571,30.6657366 C1283.03571,30.0154357 1283.21596,29.3580762 1283.57645,28.6936384 C1283.97229,27.9797211 1284.34691,27.5485498 1284.70033,27.4001116 C1284.87705,27.3223582 1285.11914,27.2481402 1285.42662,27.1774554 C1285.7341,27.1067705 1285.98326,27.0714286 1286.17411,27.0714286 C1286.27307,27.0714286 1286.34728,27.0820311 1286.39676,27.1032366 C1286.524,27.1456475 1286.71131,27.414246 1286.95871,27.9090402 C1287.03646,28.0433414 1287.14248,28.2341878 1287.27679,28.4815848 C1287.41109,28.7289819 1287.53478,28.953403 1287.64788,29.1548549 C1287.76098,29.3563068 1287.87054,29.545386 1287.97656,29.7220982 C1287.99777,29.7503722 1288.05962,29.8387269 1288.16211,29.9871652 C1288.2646,30.1356034 1288.34059,30.2610672 1288.39007,30.3635603 C1288.43955,30.4660533 1288.46429,30.5667778 1288.46429,30.6657366 C1288.46429,30.8071064 1288.36356,30.9838159 1288.16211,31.1958705 C1287.96066,31.4079252 1287.74154,31.6023057 1287.50474,31.7790179 C1287.26795,31.9557301 1287.04883,32.1430422 1286.84738,32.3409598 C1286.64593,32.5388775 1286.5452,32.7014503 1286.5452,32.828683 C1286.5452,32.8922994 1286.56287,32.9718187 1286.59821,33.0672433 C1286.63356,33.1626679 1286.6636,33.2351188 1286.68834,33.2845982 C1286.71308,33.3340776 1286.76256,33.4188982 1286.83677,33.5390625 C1286.91099,33.6592268 1286.95164,33.7263764 1286.95871,33.7405134 C1287.49591,34.7088962 1288.11086,35.5394311 1288.80357,36.2321429 C1289.49628,36.9248547 1290.32682,37.5398039 1291.2952,38.0770089 C1291.30934,38.0840774 1291.37649,38.1247206 1291.49665,38.1989397 C1291.61682,38.2731589 1291.70164,38.3226375 1291.75112,38.3473772 C1291.8006,38.3721169 1291.87305,38.4021576 1291.96847,38.4375 C1292.0639,38.4728424 1292.14341,38.4905134 1292.20703,38.4905134 C1292.33426,38.4905134 1292.49684,38.389789 1292.69475,38.1883371 C1292.89267,37.9868852 1293.07998,37.7677653 1293.2567,37.530971 C1293.43341,37.2941766 1293.62779,37.0750568 1293.83984,36.8736049 C1294.0519,36.672153 1294.22861,36.5714286 1294.36998,36.5714286 C1294.46894,36.5714286 1294.56966,36.5961679 1294.67215,36.6456473 C1294.77465,36.6951267 1294.90011,36.7711118 1295.04855,36.8736049 C1295.19699,36.976098 1295.28534,37.0379463 1295.31362,37.0591518 C1295.49033,37.1651791 1295.67941,37.274739 1295.88086,37.3878348 C1296.08231,37.5009306 1296.30673,37.6246273 1296.55413,37.7589286 C1296.80153,37.8932298 1296.99237,37.9992556 1297.12667,38.0770089 C1297.62147,38.324406 1297.89007,38.5117181 1297.93248,38.6389509 C1297.95368,38.6884303 1297.96429,38.7626483 1297.96429,38.8616071 L1297.96429,38.8616071 Z" id="phone-icon" transform="translate(1290.500000, 34.535714) rotate(7.000000) translate(-1290.500000, -34.535714) "></path>
        </g>
    </g>
</svg>