<?xml version="1.0" encoding="UTF-8" standalone="no"?>
<svg width="134px" height="46px" viewBox="0 0 134 46" version="1.1" xmlns="http://www.w3.org/2000/svg" xmlns:xlink="http://www.w3.org/1999/xlink">
    <!-- Generator: Sketch 40.1 (33804) - http://www.bohemiancoding.com/sketch -->
    <title>uload-logo</title>
    <desc>Created with Sketch.</desc>
    <defs>
        <polygon id="path-1" points="120.308289 45.5445545 0 45.5445545 0 0.0302415842 120.308289 0.0302415842"></polygon>
        <polygon id="path-3" points="6.24712542 5.89337426 6.24712542 0.377017822 0.310289492 0.377017822 0.310289492 5.89337426 6.24712542 5.89337426"></polygon>
    </defs>
    <g id="UI" stroke="none" stroke-width="1" fill="none" fill-rule="evenodd">
        <g id="Desktop-HD-ULoad-Checkout-Flow-Move-Information-1" transform="translate(-20.000000, -10.000000)">
            <g id="uload-logo" transform="translate(20.000000, 10.000000)">
                <g id="Group-3" transform="translate(0.000000, 0.425250)">
                    <mask id="mask-2" fill="white">
                        <use xlink:href="#path-1"></use>
                    </mask>
                    <g id="Clip-2"></g>
                    <path d="M112.499041,5.02647921 L60.1536447,0.0302415842 L7.80961085,5.02647921 C3.25724475,5.91232079 -9.08474576e-05,8.51428119 -9.08474576e-05,12.8569545 L-9.08474576e-05,20.5230139 L-9.08474576e-05,32.7171129 C-9.08474576e-05,37.0602416 3.25724475,39.6612911 7.80961085,40.5480436 L60.1536447,45.5447366 L112.499041,40.5480436 C117.050953,39.6612911 120.308289,37.0602416 120.308289,32.7171129 L120.308289,25.0510535 L120.308289,20.5230139 L120.308289,12.8569545 C120.308289,8.51428119 117.050953,5.91232079 112.499041,5.02647921" id="Fill-1" fill="#14499E" mask="url(#mask-2)"></path>
                </g>
                <path d="M24.3678319,14.9721347 L28.0335268,14.9721347 L28.0335268,32.4302733 L21.1327539,32.4434812 L18.8542997,32.4443921 C15.4861302,32.4443921 13.2780827,32.0759366 12.2306115,31.3394812 C11.1835946,30.6039366 10.6603132,29.0517782 10.6603132,26.6830059 L10.6603132,14.9721347 L14.3255539,14.9721347 L14.3509912,26.0002931 C14.2883064,27.0792436 14.5508556,27.9395802 15.4343471,28.5699168 C15.6228556,28.6728475 15.8299878,28.7602931 16.0521098,28.8481941 C17.9499132,29.5368277 20.2320014,29.497204 22.220198,28.9383723 C23.4130251,28.7101941 24.1452556,28.075303 24.337398,26.9107287 C24.3778251,26.5841743 24.3932692,26.2302931 24.3932692,25.8732238 L24.3678319,14.9721347 Z" id="Fill-4" fill="#FEFEFE"></path>
                <path d="M24.3678319,14.9721347 L28.0335268,14.9721347 L28.0335268,32.4302733 L21.1327539,32.4434812 L18.8542997,32.4443921 C15.4861302,32.4443921 13.2780827,32.0759366 12.2306115,31.3394812 C11.1835946,30.6039366 10.6603132,29.0517782 10.6603132,26.6830059 L10.6603132,14.9721347 L14.3255539,14.9721347 L14.3509912,26.0002931 C14.2883064,27.0792436 14.5508556,27.9395802 15.4343471,28.5699168 C15.6228556,28.6728475 15.8299878,28.7602931 16.0521098,28.8481941 C17.9499132,29.5368277 20.2320014,29.497204 22.220198,28.9383723 C23.4130251,28.7101941 24.1452556,28.075303 24.337398,26.9107287 C24.3778251,26.5841743 24.3932692,26.2302931 24.3932692,25.8732238 L24.3678319,14.9721347 L24.3678319,14.9721347 Z" id="Stroke-6" stroke="#FEFEFE"></path>
                <polygon id="Fill-8" fill="#FEFEFE" points="38.282619 15.1597782 38.282619 29.5368277 47.3405647 29.5368277 47.3405647 32.4808277 34.6169241 32.4808277 34.6169241 15.1597782"></polygon>
                <polygon id="Stroke-10" stroke="#FEFEFE" points="38.282619 15.1597782 38.282619 29.5368277 47.3405647 29.5368277 47.3405647 32.4808277 34.6169241 32.4808277 34.6169241 15.1597782"></polygon>
                <path d="M59.6421736,18.0568218 C62.0201058,18.0568218 63.423699,18.3200693 63.852499,18.8488416 C64.2822075,19.376703 64.4897939,21.0919109 64.4897939,23.9935545 C64.4897939,26.8865446 64.2649464,28.6181485 63.8120719,29.1892772 C63.3591973,29.7608614 61.9973939,30.0418713 59.7230278,30.0418713 C57.3455498,30.0418713 55.9183363,29.7881881 55.4318481,29.2808218 C54.9462685,28.773 54.7032515,27.2823267 54.7032515,24.7946832 C54.7032515,21.4371386 54.9049329,19.4664257 55.32056,18.899396 C55.7352786,18.3319109 57.1797532,18.0568218 59.6421736,18.0568218 M59.9256176,15.2357921 C55.9814753,15.2357921 53.4963431,15.7613762 52.4870278,16.8193762 C51.4772583,17.8769208 50.97896,20.4738713 50.97896,24.6029406 C50.97896,28.0711584 51.4886142,30.3110396 52.5165532,31.3307822 C53.5454007,32.3496139 55.8184041,32.8633564 59.3287498,32.8633564 C63.2251973,32.8633564 65.682621,32.3423267 66.6969329,31.3102871 C67.7112447,30.2782475 68.2145397,27.7783069 68.2145397,23.8109208 C68.2145397,20.1814752 67.7062481,17.8532376 66.6969329,16.808901 C65.6871634,15.7641089 63.4350549,15.2357921 59.9256176,15.2357921" id="Fill-12" fill="#FEFEFE"></path>
                <path d="M59.6421736,18.0568218 C62.0201058,18.0568218 63.423699,18.3200693 63.852499,18.8488416 C64.2822075,19.376703 64.4897939,21.0919109 64.4897939,23.9935545 C64.4897939,26.8865446 64.2649464,28.6181485 63.8120719,29.1892772 C63.3591973,29.7608614 61.9973939,30.0418713 59.7230278,30.0418713 C57.3455498,30.0418713 55.9183363,29.7881881 55.4318481,29.2808218 C54.9462685,28.773 54.7032515,27.2823267 54.7032515,24.7946832 C54.7032515,21.4371386 54.9049329,19.4664257 55.32056,18.899396 C55.7352786,18.3319109 57.1797532,18.0568218 59.6421736,18.0568218 L59.6421736,18.0568218 Z M59.9256176,15.2357921 C55.9814753,15.2357921 53.4963431,15.7613762 52.4870278,16.8193762 C51.4772583,17.8769208 50.97896,20.4738713 50.97896,24.6029406 C50.97896,28.0711584 51.4886142,30.3110396 52.5165532,31.3307822 C53.5454007,32.3496139 55.8184041,32.8633564 59.3287498,32.8633564 C63.2251973,32.8633564 65.682621,32.3423267 66.6969329,31.3102871 C67.7112447,30.2782475 68.2145397,27.7783069 68.2145397,23.8109208 C68.2145397,20.1814752 67.7062481,17.8532376 66.6969329,16.808901 C65.6871634,15.7641089 63.4350549,15.2357921 59.9256176,15.2357921 L59.9256176,15.2357921 Z" id="Stroke-14" stroke="#FEFEFE"></path>
                <path d="M81.102478,17.8203545 L84.4433932,26.8422752 L77.8133458,26.8422752 L81.102478,17.8203545 Z M78.2998339,15.2730475 L71.8723763,32.5959188 L75.7488373,32.5959188 L76.9534746,29.2670673 L85.2932712,29.2670673 L86.5174407,32.5959188 L90.3330339,32.5959188 L83.8051898,15.2730475 L78.2998339,15.2730475 Z" id="Fill-16" fill="#FEFEFE"></path>
                <path d="M81.102478,17.8203545 L84.4433932,26.8422752 L77.8133458,26.8422752 L81.102478,17.8203545 L81.102478,17.8203545 Z M78.2998339,15.2730475 L71.8723763,32.5959188 L75.7488373,32.5959188 L76.9534746,29.2670673 L85.2932712,29.2670673 L86.5174407,32.5959188 L90.3330339,32.5959188 L83.8051898,15.2730475 L78.2998339,15.2730475 L78.2998339,15.2730475 Z" id="Stroke-18" stroke="#FEFEFE"></path>
                <path d="M98.1929742,17.9286594 L103.638371,17.9286594 C105.346303,17.9286594 106.43511,18.2702436 106.897523,18.9643426 C107.360391,19.6579861 107.585693,21.2798277 107.585693,23.8348772 C107.585693,26.3052139 107.330866,27.901095 106.817123,28.624798 C106.302018,29.3480455 105.170513,29.7105802 103.416249,29.7105802 L98.1929742,29.7105802 L98.1929742,17.9286594 Z M94.5295505,15.1581842 L94.5295505,32.4810554 L104.133944,32.4810554 C107.18233,32.4810554 109.136913,31.8652931 110.004506,30.6337683 C110.873462,29.4031545 111.310439,26.6253921 111.310439,22.302303 C111.310439,19.6543426 110.771713,17.7988574 109.690628,16.7417683 C108.610452,15.6842238 106.721734,15.1581842 104.023564,15.1581842 L94.5295505,15.1581842 Z" id="Fill-20" fill="#FEFEFE"></path>
                <path d="M98.1929742,17.9286594 L103.638371,17.9286594 C105.346303,17.9286594 106.43511,18.2702436 106.897523,18.9643426 C107.360391,19.6579861 107.585693,21.2798277 107.585693,23.8348772 C107.585693,26.3052139 107.330866,27.901095 106.817123,28.624798 C106.302018,29.3480455 105.170513,29.7105802 103.416249,29.7105802 L98.1929742,29.7105802 L98.1929742,17.9286594 L98.1929742,17.9286594 Z M94.5295505,15.1581842 L94.5295505,32.4810554 L104.133944,32.4810554 C107.18233,32.4810554 109.136913,31.8652931 110.004506,30.6337683 C110.873462,29.4031545 111.310439,26.6253921 111.310439,22.302303 C111.310439,19.6543426 110.771713,17.7988574 109.690628,16.7417683 C108.610452,15.6842238 106.721734,15.1581842 104.023564,15.1581842 L94.5295505,15.1581842 L94.5295505,15.1581842 Z" id="Stroke-22" stroke="#FEFEFE"></path>
                <polygon id="Fill-24" fill="#14499E" points="125.030812 10.3127901 123.344683 10.3127901 123.344683 9.45564158 127.696277 9.45564158 127.696277 10.3127901 126.010148 10.3127901 126.010148 14.971998 125.030812 14.971998"></polygon>
                <g id="Group-28" transform="translate(127.640678, 9.078715)">
                    <mask id="mask-4" fill="white">
                        <use xlink:href="#path-3"></use>
                    </mask>
                    <g id="Clip-27"></g>
                    <polygon id="Fill-26" fill="#14499E" mask="url(#mask-4)" points="0.310289492 0.377017822 1.84106915 0.377017822 3.27146237 4.29612673 3.29417424 4.29612673 4.70866915 0.377017822 6.24717085 0.377017822 6.24717085 5.89337426 5.27601153 5.89337426 5.27601153 1.46006733 5.26011322 1.46006733 3.58988271 5.89337426 2.90580136 5.89337426 1.25828271 1.46006733 1.24283864 1.46006733 1.24283864 5.89337426 0.310289492 5.89337426"></polygon>
                </g>
            </g>
        </g>
    </g>
</svg>