<svg width="23" height="13" viewBox="0 0 23 13" xmlns="http://www.w3.org/2000/svg" xmlns:xlink="http://www.w3.org/1999/xlink"><title>Page 1</title><defs><path id="a" d="M0 12.741V.001h22.767v12.74z"/></defs><g fill="none" fill-rule="evenodd"><mask id="b" fill="#fff"><use xlink:href="#a"/></mask><path d="M16.023 0a.525.525 0 0 0-.498.55.537.537 0 0 0 .175.379l5.217 4.916H.493c-.27.013-.505.278-.493.556.013.278.27.519.542.506h20.375L15.7 11.815a.541.541 0 0 0-.04.75.508.508 0 0 0 .731.04l.003-.003 6.203-5.836a.54.54 0 0 0 0-.788L16.394.141a.508.508 0 0 0-.371-.14" fill="#B20707" mask="url(#b)"/></g></svg>