<svg width="17" height="19" viewBox="0 0 17 19" xmlns="http://www.w3.org/2000/svg"><title>calendar-icon</title><path d="M1.308 17H4.25v-2.942H1.308V17zm3.596 0h3.27v-2.942h-3.27V17zm-3.596-3.596H4.25v-3.27H1.308v3.27zm3.596 0h3.27v-3.27h-3.27v3.27zM1.308 9.48H4.25V6.538H1.308v2.943zM8.827 17h3.27v-2.942h-3.27V17zM4.904 9.48h3.27V6.539h-3.27v2.943zM12.75 17h2.942v-2.942H12.75V17zm-3.923-3.596h3.27v-3.27h-3.27v3.27zM5.23 4.577V1.635a.314.314 0 0 0-.097-.23.314.314 0 0 0-.23-.097H4.25a.314.314 0 0 0-.23.097.314.314 0 0 0-.097.23v2.942c0 .088.032.165.097.23a.314.314 0 0 0 .23.097h.654a.314.314 0 0 0 .23-.097.314.314 0 0 0 .097-.23zm7.519 8.827h2.942v-3.27H12.75v3.27zM8.827 9.48h3.27V6.538h-3.27v2.943zm3.923 0h2.942V6.538H12.75v2.943zm.327-4.904V1.635a.314.314 0 0 0-.097-.23.314.314 0 0 0-.23-.097h-.654a.314.314 0 0 0-.23.097.314.314 0 0 0-.097.23v2.942c0 .088.033.165.097.23a.314.314 0 0 0 .23.097h.654a.314.314 0 0 0 .23-.097.314.314 0 0 0 .097-.23zM17 3.923V17c0 .354-.13.66-.388.92a1.257 1.257 0 0 1-.92.388H1.308c-.354 0-.661-.13-.92-.389A1.257 1.257 0 0 1 0 17V3.923c0-.354.13-.66.388-.92.259-.258.566-.388.92-.388h1.307v-.98c0-.45.16-.835.48-1.155C3.416.16 3.8 0 4.25 0h.654c.45 0 .834.16 1.154.48.32.32.48.705.48 1.155v.98h3.924v-.98c0-.45.16-.835.48-1.155.32-.32.705-.48 1.154-.48h.654c.45 0 .834.16 1.154.48.32.32.48.705.48 1.155v.98h1.308c.354 0 .661.13.92.389.259.258.388.565.388.92z" fill="#4FA0E8" fill-rule="evenodd"/></svg>