<svg width="52" height="125" viewBox="0 0 52 125" xmlns="http://www.w3.org/2000/svg" xmlns:xlink="http://www.w3.org/1999/xlink"><title>Artboard</title><defs><rect id="a" width="50" height="30" rx="4"/><rect id="c" width="50" height="30" rx="4"/></defs><g fill="none" fill-rule="evenodd"><g transform="translate(1 63)"><rect fill="#0072CE" width="50" height="30" rx="4"/><path d="M42.204 17.333h-1.767c-.176 0-.293.006-.392.073-.102.065-.142.163-.142.29 0 .153.087.257.212.302.102.035.212.046.374.046l.525.014c.53.013.884.104 1.1.325.039.031.063.066.09.1v-1.15zm0 2.666c-.236.343-.695.517-1.316.517h-1.871v-.867h1.864c.185 0 .314-.024.392-.1a.355.355 0 0 0 .115-.264.332.332 0 0 0-.119-.267c-.07-.062-.172-.09-.341-.09-.91-.03-2.046.028-2.046-1.252 0-.586.374-1.204 1.39-1.204h1.932v-.804H40.41c-.542 0-.935.13-1.213.33v-.33h-2.654c-.424 0-.922.105-1.157.33v-.33h-4.739v.33c-.377-.271-1.013-.33-1.307-.33h-3.125v.33c-.298-.288-.962-.33-1.366-.33h-3.498l-.8.863-.75-.863h-5.224v5.642h5.126l.825-.877.777.877 3.16.003v-1.327h.31c.42.006.914-.01 1.35-.199v1.523h2.607v-1.47h.126c.16 0 .176.006.176.166v1.304h7.918c.502 0 1.028-.128 1.319-.361v.361h2.511c.523 0 1.033-.073 1.422-.26v-1.051zm-3.867-1.616c.19.195.29.44.29.857 0 .87-.545 1.276-1.522 1.276h-1.888v-.867h1.88c.184 0 .314-.024.396-.1a.358.358 0 0 0 .114-.264.347.347 0 0 0-.118-.267c-.074-.062-.176-.09-.345-.09-.906-.03-2.042.028-2.042-1.252 0-.586.37-1.204 1.386-1.204h1.943v.861h-1.778c-.176 0-.29.007-.388.073-.106.066-.146.163-.146.291 0 .153.09.256.212.301.103.036.213.046.378.046l.521.014c.527.013.888.104 1.107.325zm-8.746-.25c-.13.077-.29.084-.478.084h-1.178v-.908h1.194c.172 0 .345.003.462.073.126.065.2.19.2.363a.436.436 0 0 1-.2.389zm.586.504c.215.08.392.222.474.34.137.197.157.381.161.737v.802h-.973v-.506c0-.243.023-.603-.157-.791-.141-.145-.357-.18-.71-.18h-1.037v1.477h-.974v-4.044H29.2c.49 0 .848.022 1.166.191.306.184.499.437.499.898 0 .646-.432.975-.687 1.076zm1.224-2.165h3.235v.837h-2.27v.735h2.215v.825h-2.215v.804l2.27.004v.84h-3.235v-4.045zm-6.54 1.866H23.61v-1.03h1.264c.35 0 .593.143.593.496 0 .35-.232.534-.605.534zm-2.217 1.81l-1.489-1.647 1.489-1.595v3.242zm-3.844-.475h-2.383v-.804h2.128v-.825h-2.128v-.735h2.43l1.06 1.178-1.107 1.186zm7.706-1.869c0 1.124-.84 1.356-1.688 1.356h-1.21v1.356h-1.883l-1.194-1.339-1.24 1.34h-3.84v-4.045h3.9l1.192 1.326 1.233-1.326h3.097c.769 0 1.633.213 1.633 1.332zm-15.679-5.992l-.663-1.612-.66 1.612h1.323zm14.615-.642c-.133.08-.29.084-.48.084h-1.177v-.898h1.194c.169 0 .345.007.46.073.125.058.203.184.203.357 0 .177-.074.319-.2.384zm8.4.642l-.67-1.612-.668 1.612h1.338zm-15.658 1.745h-.994l-.003-3.167-1.406 3.167h-.85l-1.41-3.17v3.17H11.55l-.373-.902H9.16l-.376.902H7.73l1.736-4.043h1.44l1.649 3.828V9.514h1.582l1.268 2.742 1.165-2.742h1.614v4.043zm3.96 0h-3.238V9.514h3.238v.842h-2.268v.728h2.214v.83h-2.214v.806h2.268v.837zm4.566-2.954c0 .644-.432.977-.683 1.077.212.08.393.223.48.34.136.202.16.381.16.742v.795h-.978l-.004-.51c0-.243.024-.593-.153-.788-.141-.142-.357-.173-.706-.173h-1.04v1.47h-.97V9.515h2.23c.495 0 .86.013 1.173.193.307.181.49.445.49.896zm1.55 2.954h-.988V9.514h.989v4.043zm11.474 0h-1.373l-1.837-3.035v3.035H34.55l-.377-.902h-2.014l-.366.902H30.66c-.471 0-1.068-.104-1.405-.448-.341-.343-.518-.808-.518-1.543 0-.6.106-1.148.522-1.58.314-.323.804-.472 1.472-.472h.939v.866h-.92c-.353 0-.553.052-.745.24-.165.17-.279.492-.279.915 0 .433.087.746.267.95.15.16.42.208.675.208h.436l1.366-3.18h1.452l1.641 3.825V9.514h1.476l1.704 2.816V9.514h.992v4.043zM7.72 14.35h1.656l.374-.898h.836l.372.898h3.258v-.687l.291.69h1.692l.29-.7v.697h8.099l-.004-1.474h.156c.11.003.142.014.142.194v1.28h4.188v-.343c.338.18.864.343 1.555.343h1.762l.377-.898h.836l.369.898h3.395v-.853l.515.853h2.72V8.712h-2.692v.666l-.377-.666h-2.763v.666l-.347-.666h-3.732c-.625 0-1.174.087-1.618.33v-.33h-2.575v.33c-.282-.25-.667-.33-1.095-.33h-9.41l-.63 1.456-.65-1.456h-2.963v.666l-.326-.666H8.893l-1.174 2.681v2.958z" fill="#FFF"/></g><g transform="translate(1 94)"><mask id="b" fill="#fff"><use xlink:href="#a"/></mask><g mask="url(#b)"><mask id="d" fill="#fff"><use xlink:href="#c"/></mask><rect stroke="#E6772F" stroke-width="2" fill="#FFF" mask="url(#d)" width="50" height="30" rx="4"/></g></g><path d="M13.058 124h33.935A4 4 0 0 0 51 120v-9.151S37.6 119.934 13.058 124z" fill="#E7772F"/><path d="M10.144 108.911c-.375.321-.853.461-1.617.461H8.21v-3.83h.317c.764 0 1.224.131 1.617.468.407.348.65.885.65 1.44 0 .56-.243 1.115-.65 1.461zm-1.38-4.35H7.029v5.793h1.724c.918 0 1.58-.21 2.16-.67a2.86 2.86 0 0 0 1.1-2.225c0-1.71-1.336-2.898-3.25-2.898zm3.793 0h1.176v5.793h-1.176zm4.065 2.22c-.71-.249-.917-.415-.917-.728 0-.364.37-.64.88-.64.354 0 .645.136.955.466l.615-.77a2.705 2.705 0 0 0-1.777-.644c-1.072 0-1.888.713-1.888 1.656 0 .8.38 1.207 1.487 1.593.463.154.699.259.818.33.236.146.353.355.353.597 0 .471-.39.818-.917.818-.562 0-1.016-.27-1.288-.774l-.761.705c.544.763 1.196 1.104 2.095 1.104 1.225 0 2.089-.785 2.089-1.904 0-.921-.4-1.339-1.744-1.809m2.115.678c0 1.703 1.397 3.023 3.196 3.023.507 0 .942-.095 1.477-.337v-1.331c-.473.455-.888.634-1.426.634-1.188 0-2.03-.823-2.03-1.997 0-1.11.869-1.989 1.979-1.989.56 0 .987.19 1.477.652v-1.33c-.517-.25-.942-.354-1.453-.354-1.789 0-3.22 1.346-3.22 3.029m14.237.991l-1.614-3.889h-1.287l2.566 5.939h.633l2.616-5.939h-1.277l-1.637 3.89m3.45 1.903h3.347v-.982h-2.166v-1.563h2.084v-.982h-2.084v-1.285h2.166v-.98h-3.347v5.792m5.653-3.129h-.343v-1.752h.362c.738 0 1.133.296 1.133.86 0 .58-.395.892-1.152.892zm2.368-.955c0-1.084-.778-1.709-2.14-1.709H40.55v5.793h1.183v-2.33h.154l1.63 2.33h1.453l-1.904-2.442c.89-.174 1.378-.755 1.378-1.642z" fill="#1A1918"/><path d="M30.24 107.472c0 1.668-1.413 3.02-3.156 3.02s-3.156-1.352-3.156-3.02c0-1.667 1.413-3.02 3.156-3.02s3.155 1.353 3.155 3.02" fill="#E7772F"/><g transform="translate(1 1)"><rect fill="#26337A" width="50" height="30" rx="4"/><path fill="#FFF" d="M20.745 19.773l1.537-9.537h2.458l-1.537 9.537h-2.458m11.371-9.303a6.075 6.075 0 0 0-2.202-.4c-2.43 0-4.14 1.295-4.154 3.148-.015 1.37 1.22 2.135 2.152 2.59.958.468 1.28.767 1.276 1.184-.007.639-.764.932-1.47.932-.985 0-1.507-.144-2.316-.5l-.316-.152-.343 2.134c.573.266 1.635.497 2.737.509 2.583 0 4.26-1.279 4.28-3.258.009-1.087-.646-1.91-2.064-2.591-.859-.442-1.386-.735-1.38-1.183 0-.396.445-.82 1.408-.82a4.31 4.31 0 0 1 1.839.366l.22.109.333-2.068m3.273 5.922c.203-.548.979-2.666.979-2.666-.015.026.202-.552.326-.91l.166.823s.472 2.276.569 2.753h-2.04zm3.031-6.146h-1.899c-.589 0-1.03.169-1.288.79l-3.65 8.74h2.582s.421-1.175.517-1.433l3.147.005c.074.333.3 1.429.3 1.429h2.28l-1.989-9.53zm-19.737-.002l-2.405 6.502-.258-1.321c-.448-1.523-1.843-3.174-3.404-4l2.2 8.34 2.602-.001 3.87-9.52h-2.605"/><path d="M14.045 10.238h-3.963l-.032.197c3.083.79 5.124 2.697 5.97 4.99l-.86-4.382c-.15-.605-.581-.784-1.115-.805" fill="#ED982D"/></g><g transform="translate(1 32)"><rect fill="#006" width="50" height="30" rx="4"/><path d="M28.064 15.243A9.757 9.757 0 0 1 18.307 25c-5.39 0-9.758-4.368-9.758-9.757 0-5.39 4.369-9.758 9.758-9.758 5.389 0 9.757 4.369 9.757 9.758" fill="#C00"/><path d="M31.407 5.485a9.723 9.723 0 0 0-7.536 3.559h1.972c.27.328.517.672.744 1.033h-3.46a9.803 9.803 0 0 0-.562 1.034h4.584c.156.334.294.679.413 1.033h-5.41a9.714 9.714 0 0 0-.283 1.032h5.976a9.829 9.829 0 0 1-.283 5.166h-5.41c.119.354.257.7.413 1.034h4.584a9.775 9.775 0 0 1-.563 1.033h-3.459c.226.36.475.705.744 1.033h1.971a9.751 9.751 0 0 1-.985 1.033A9.722 9.722 0 0 0 31.407 25a9.757 9.757 0 0 0 9.757-9.757c0-5.389-4.368-9.758-9.757-9.758" fill="#F90"/><path d="M16.028 16.311a1.822 1.822 0 0 0-.236-.017c-.6 0-.904.206-.904.613 0 .25.148.41.38.41.43 0 .742-.41.76-1.006zm.77 1.793h-.877l.02-.417c-.268.33-.625.487-1.11.487-.574 0-.968-.448-.968-1.1 0-.98.685-1.551 1.86-1.551.12 0 .274.011.432.03a.994.994 0 0 0 .041-.26c0-.267-.184-.367-.68-.367a3.532 3.532 0 0 0-1.12.182l.147-.905c.527-.156.875-.213 1.267-.213.91 0 1.392.408 1.39 1.18.003.207-.032.461-.085.797-.092.583-.29 1.833-.316 2.137zm-3.378 0h-1.06l.608-3.804-1.356 3.804h-.721l-.09-3.783-.637 3.783h-.992L10 13.155h1.524l.092 2.77.929-2.77h1.694l-.819 4.95m19.296-1.794a1.814 1.814 0 0 0-.236-.017c-.6 0-.904.206-.904.613 0 .25.147.41.38.41.43 0 .742-.41.76-1.006zm.77 1.793h-.877l.02-.417c-.268.33-.625.487-1.11.487-.574 0-.968-.448-.968-1.1 0-.98.685-1.551 1.86-1.551.12 0 .274.011.432.03a.988.988 0 0 0 .041-.26c0-.267-.184-.367-.68-.367a3.54 3.54 0 0 0-1.121.182c.012-.067.148-.905.148-.905.527-.156.876-.213 1.267-.213.91 0 1.392.408 1.39 1.18.002.207-.032.461-.085.797-.092.583-.29 1.833-.316 2.137zm-11.979-.061c-.29.092-.516.131-.761.131-.542 0-.837-.311-.837-.884-.008-.178.077-.646.145-1.073.061-.376.46-2.747.46-2.747h1.052l-.123.61h.636l-.144.967h-.638c-.122.765-.296 1.719-.298 1.845 0 .208.11.298.362.298a.851.851 0 0 0 .286-.038l-.14.891m3.228-.033c-.362.111-.71.165-1.08.164-1.18-.002-1.794-.617-1.794-1.796 0-1.375.782-2.388 1.843-2.388.868 0 1.423.567 1.423 1.456 0 .295-.038.583-.13.99H22.9c-.07.584.303.827.916.827.376 0 .716-.078 1.094-.253l-.175 1zm-.592-2.385c.006-.084.112-.719-.49-.719-.335 0-.575.256-.673.719h1.163zm-6.709-.273c0 .509.247.86.807 1.124.429.202.495.261.495.444 0 .25-.19.364-.608.364-.316 0-.61-.05-.95-.159l-.145.93c.24.052.456.1 1.103.119 1.117 0 1.633-.426 1.633-1.345 0-.553-.215-.878-.746-1.122-.444-.204-.495-.25-.495-.437 0-.218.176-.33.518-.33.208 0 .492.023.761.061l.15-.933a7.152 7.152 0 0 0-.931-.078c-1.185 0-1.596.618-1.592 1.362m12.453-1.256c.294 0 .569.076.947.267l.173-1.074c-.156-.061-.702-.42-1.164-.42-.709 0-1.309.353-1.73.933-.615-.204-.868.208-1.178.618l-.275.064c.021-.135.04-.269.034-.405h-.973c-.133 1.247-.368 2.508-.553 3.755l-.048.27h1.06a68.74 68.74 0 0 0 .332-2.383l.4-.221c.06-.222.245-.297.62-.288a4.509 4.509 0 0 0-.076.825c0 1.317.712 2.137 1.852 2.137.294 0 .546-.039.936-.145l.186-1.128c-.351.173-.639.254-.9.254-.615 0-.988-.455-.988-1.206 0-1.09.554-1.853 1.345-1.853m8.969-.941l-.236 1.43c-.29-.381-.6-.657-1.011-.657-.534 0-1.021.405-1.34 1.002a8.694 8.694 0 0 1-.902-.249v.004a5.96 5.96 0 0 0 .047-.606h-.973c-.133 1.247-.368 2.508-.552 3.755l-.05.27H34.9c.143-.928.252-1.7.333-2.312.362-.328.544-.613.91-.594a3.45 3.45 0 0 0-.258 1.306c0 1.006.509 1.67 1.28 1.67.388 0 .686-.134.976-.444l-.05.374h1.002l.807-4.949h-1.044zm-1.325 4.02c-.36 0-.543-.268-.543-.794 0-.791.34-1.352.821-1.352.364 0 .562.277.562.788 0 .798-.347 1.358-.84 1.358z" fill="#006"/><path fill="#FFF" d="M13.725 17.81h-1.06l.608-3.804-1.355 3.805h-.723l-.089-3.783-.638 3.783h-.991l.828-4.95h1.523l.043 3.064 1.028-3.063h1.645l-.82 4.949m2.609-1.793a1.761 1.761 0 0 0-.236-.017c-.6 0-.904.206-.904.613 0 .25.148.41.38.41.43 0 .742-.41.76-1.006zm.77 1.793h-.877l.02-.417c-.268.33-.625.487-1.11.487-.574 0-.968-.45-.968-1.1 0-.98.685-1.551 1.86-1.551.12 0 .274.01.432.03a.999.999 0 0 0 .04-.26c0-.267-.184-.366-.68-.366a3.519 3.519 0 0 0-1.12.18l.146-.905c.528-.155.876-.213 1.268-.213.91 0 1.392.409 1.39 1.18.002.207-.032.463-.085.798-.092.582-.29 1.833-.316 2.137zm14.209-4.816l-.174 1.074c-.378-.19-.652-.267-.946-.267-.79 0-1.346.764-1.346 1.855 0 .75.373 1.204.99 1.204.26 0 .548-.08.899-.253l-.186 1.127c-.39.107-.643.146-.936.146-1.141 0-1.851-.82-1.851-2.137 0-1.77.982-3.006 2.386-3.006.462 0 1.008.196 1.164.257m1.708 3.023a1.748 1.748 0 0 0-.235-.017c-.6 0-.904.206-.904.613 0 .25.148.41.38.41.43 0 .742-.41.76-1.006zm.772 1.793h-.878l.02-.417c-.268.33-.625.487-1.11.487-.575 0-.968-.45-.968-1.1 0-.98.684-1.551 1.86-1.551.12 0 .274.01.431.03a.994.994 0 0 0 .042-.26c0-.267-.184-.366-.68-.366a3.52 3.52 0 0 0-1.12.18l.146-.905c.528-.155.876-.213 1.268-.213.91 0 1.392.409 1.39 1.18.003.207-.032.463-.085.798-.092.582-.29 1.833-.316 2.137zm-11.981-.061a2.42 2.42 0 0 1-.76.13c-.542 0-.838-.31-.838-.883-.007-.179.078-.646.146-1.073.06-.377.459-2.747.459-2.747h1.053l-.123.609h.54l-.144.967h-.542c-.122.766-.297 1.72-.299 1.846 0 .208.111.298.363.298a.855.855 0 0 0 .286-.038l-.14.89m3.228-.031c-.362.11-.711.163-1.08.163-1.18-.001-1.794-.617-1.794-1.796 0-1.376.782-2.39 1.843-2.39.868 0 1.423.568 1.423 1.458 0 .295-.039.583-.13.99h-2.097c-.07.584.303.827.915.827a2.49 2.49 0 0 0 1.095-.254l-.175 1.002zm-.592-2.387c.006-.084.112-.719-.49-.719-.335 0-.575.257-.673.719h1.163zm-6.709-.273c0 .51.247.86.807 1.124.429.202.495.262.495.445 0 .25-.189.364-.608.364-.316 0-.61-.05-.95-.159l-.145.93c.24.052.456.1 1.102.119 1.118 0 1.634-.426 1.634-1.346 0-.553-.216-.877-.746-1.121-.444-.204-.495-.25-.495-.438 0-.217.176-.33.518-.33.208 0 .492.024.761.062l.15-.933a7.21 7.21 0 0 0-.931-.08c-1.186 0-1.596.62-1.592 1.363m21.659 2.752h-1.002l.05-.374c-.29.31-.588.445-.977.445-.77 0-1.279-.664-1.279-1.67 0-1.34.79-2.468 1.724-2.468.41 0 .722.168 1.011.55l.235-1.431h1.045l-.807 4.949zm-1.563-.93c.494 0 .84-.558.84-1.355 0-.512-.197-.79-.56-.79-.481 0-.822.561-.822 1.353 0 .526.182.793.542.793zm-3.089-3.094c-.133 1.246-.368 2.507-.553 3.754l-.048.27h1.06c.379-2.46.47-2.94 1.064-2.88.095-.505.271-.946.402-1.168-.443-.093-.691.158-1.016.634.026-.206.073-.406.064-.61h-.973m-8.72 0c-.133 1.246-.37 2.507-.553 3.754l-.048.27h1.06c.379-2.46.47-2.94 1.063-2.88.095-.505.272-.946.403-1.168-.443-.093-.691.158-1.016.634.026-.206.073-.406.064-.61h-.973"/></g></g></svg>