<svg width="14" height="14" viewBox="0 0 14 14" xmlns="http://www.w3.org/2000/svg"><title>info-icon</title><path d="M8.167 11.375v-1.75a.284.284 0 0 0-.082-.21.284.284 0 0 0-.21-.082h-1.75a.284.284 0 0 0-.21.082.284.284 0 0 0-.082.21v1.75c0 .085.028.155.082.21a.284.284 0 0 0 .21.082h1.75a.284.284 0 0 0 .21-.082.284.284 0 0 0 .082-.21zM10.5 5.25c0-.535-.169-1.03-.506-1.486a3.452 3.452 0 0 0-1.262-1.057 3.462 3.462 0 0 0-1.55-.374c-1.476 0-2.603.647-3.381 1.942-.091.146-.067.273.073.383l1.203.911c.042.036.1.055.173.055a.269.269 0 0 0 .228-.11c.322-.413.583-.692.784-.838.206-.146.468-.219.784-.219.291 0 .551.079.779.237.228.158.342.337.342.538 0 .23-.061.416-.183.556-.121.14-.328.276-.62.41a3.13 3.13 0 0 0-1.052.788c-.32.356-.479.737-.479 1.144v.328c0 .085.028.155.082.21a.284.284 0 0 0 .21.082h1.75a.284.284 0 0 0 .21-.082.284.284 0 0 0 .082-.21c0-.115.065-.266.196-.45a1.54 1.54 0 0 1 .496-.452c.195-.11.344-.196.447-.26.103-.064.243-.17.42-.319.175-.149.31-.294.405-.437a2.407 2.407 0 0 0 .369-1.29zM14 7c0 1.27-.313 2.441-.939 3.514a6.969 6.969 0 0 1-2.547 2.547A6.848 6.848 0 0 1 7 14a6.848 6.848 0 0 1-3.514-.939A6.969 6.969 0 0 1 .94 10.514 6.848 6.848 0 0 1 0 7c0-1.27.313-2.441.939-3.514A6.969 6.969 0 0 1 3.486.94 6.848 6.848 0 0 1 7 0c1.27 0 2.441.313 3.514.939a6.969 6.969 0 0 1 2.547 2.547A6.848 6.848 0 0 1 14 7z" fill="#B6B6B6" fill-rule="evenodd"/></svg>