<svg width="34" height="34" viewBox="0 0 34 34" xmlns="http://www.w3.org/2000/svg"><title>Group</title><g fill="none" fill-rule="evenodd"><circle fill="#1E88E5" cx="17" cy="17" r="17"/><path d="M24.2 22.522a3.5 3.5 0 0 1-.197.729c-.107.296-.21.527-.31.693-.19.333-.663.652-1.42.958-.703.277-1.378.376-2.023.297a4.09 4.09 0 0 1-.548-.105 4.583 4.583 0 0 1-.59-.206 8.643 8.643 0 0 1-.48-.214c-.104-.052-.29-.148-.558-.287a22.59 22.59 0 0 0-.492-.253 9.603 9.603 0 0 1-1.735-1.1c-.83-.664-1.665-1.534-2.505-2.61-.84-1.075-1.482-2.095-1.926-3.061a9.603 9.603 0 0 1-.647-1.95 22.59 22.59 0 0 0-.126-.538 39.066 39.066 0 0 1-.144-.61 8.643 8.643 0 0 1-.091-.52 4.583 4.583 0 0 1-.058-.62 4.09 4.09 0 0 1 .031-.557c.08-.646.339-1.276.777-1.892.48-.66.905-1.043 1.273-1.147.185-.056.435-.1.748-.132a3.5 3.5 0 0 1 .755-.015c.099.013.17.032.217.06.122.057.275.346.46.867.06.143.143.346.246.608.103.261.199.5.286.713.088.214.174.415.257.603.018.03.069.126.152.286.084.16.144.293.18.401.037.108.05.21.037.31-.017.14-.138.303-.364.488a5.168 5.168 0 0 1-.724.5 6.385 6.385 0 0 0-.72.477c-.225.172-.344.32-.36.447a.716.716 0 0 0 .024.243c.023.1.044.175.063.227.018.052.057.142.116.27.059.129.091.2.096.215.416 1.027.925 1.926 1.528 2.698s1.352 1.484 2.248 2.135a6.1 6.1 0 0 1 .185.146c.11.088.188.147.235.178.046.03.114.07.204.116.09.047.168.074.23.082.127.015.3-.065.522-.24.22-.177.433-.371.637-.585.205-.213.424-.407.66-.581.234-.174.422-.253.562-.236a.692.692 0 0 1 .291.111c.096.062.211.152.346.272.135.12.215.192.24.217a28.142 28.142 0 0 0 1.147.845c.229.164.405.292.529.386.461.306.705.524.731.656a.594.594 0 0 1 .005.225z" fill="#FFF"/></g></svg>