<svg width="15" height="17" viewBox="0 0 15 17" xmlns="http://www.w3.org/2000/svg"><title>phone-icon</title><path d="M14.381 13.739a3.5 3.5 0 0 1-.196.729c-.108.297-.21.528-.31.694-.19.332-.663.652-1.42.958-.704.276-1.378.375-2.024.296a4.09 4.09 0 0 1-.548-.105 4.583 4.583 0 0 1-.588-.206 8.643 8.643 0 0 1-.482-.213c-.104-.052-.29-.148-.557-.288-.268-.14-.432-.224-.493-.253a9.602 9.602 0 0 1-1.734-1.1c-.83-.664-1.665-1.534-2.505-2.609-.84-1.075-1.482-2.096-1.926-3.062A9.603 9.603 0 0 1 .95 6.631a22.604 22.604 0 0 0-.127-.539l-.144-.61a8.635 8.635 0 0 1-.09-.519 4.582 4.582 0 0 1-.058-.621 4.09 4.09 0 0 1 .031-.557c.08-.646.338-1.276.777-1.892.48-.66.904-1.042 1.273-1.147.185-.055.434-.1.748-.132A3.5 3.5 0 0 1 4.116.6c.098.012.17.032.217.059.121.057.274.347.46.868.06.143.142.345.246.607.103.262.198.5.286.713.088.214.173.415.257.603.018.031.068.126.152.286.084.16.144.294.18.402.037.107.05.21.037.308-.017.14-.139.304-.364.49a5.168 5.168 0 0 1-.724.499 6.385 6.385 0 0 0-.72.477c-.225.172-.345.321-.36.447a.716.716 0 0 0 .023.244c.024.099.045.174.063.226.019.053.058.143.117.271.059.128.09.2.096.215.415 1.026.924 1.926 1.527 2.698.604.772 1.353 1.483 2.249 2.135.013.008.075.057.185.145s.188.148.234.178c.046.031.115.07.205.116.09.047.167.074.23.082.127.016.3-.065.521-.24.221-.176.434-.37.638-.584.204-.214.424-.408.659-.582.235-.174.423-.252.563-.235a.692.692 0 0 1 .29.11c.097.062.212.153.347.273.135.12.215.191.24.216.163.127.337.259.523.395.186.137.394.287.623.45.23.164.406.293.53.386.46.306.704.525.731.656a.594.594 0 0 1 .004.225z" fill="#1E88E5" fill-rule="evenodd"/></svg>