<svg width="25" height="46" viewBox="0 0 25 46" xmlns="http://www.w3.org/2000/svg"><title>Artboard 2</title><g fill="none" fill-rule="evenodd"><path d="M5.77 44.154h13.46v-3.846H5.77v3.846zm0-9.616h13.46V28.77h-2.403c-.4 0-.741-.14-1.022-.42a1.39 1.39 0 0 1-.42-1.022v-2.404H5.769v9.615zm17.307.962a.924.924 0 0 0-.286-.676.924.924 0 0 0-.676-.286.924.924 0 0 0-.676.286.924.924 0 0 0-.285.676c0 .26.095.486.285.676.19.19.416.286.676.286.26 0 .486-.096.676-.286a.924.924 0 0 0 .286-.676zm1.923 0v6.25c0 .13-.048.243-.143.338a.462.462 0 0 1-.338.143h-3.365v2.404c0 .4-.14.74-.42 1.021-.281.28-.622.42-1.022.42H5.288c-.4 0-.74-.14-1.021-.42a1.39 1.39 0 0 1-.42-1.021V42.23H.48a.462.462 0 0 1-.338-.143A.462.462 0 0 1 0 41.75V35.5c0-.791.283-1.47.849-2.036a2.777 2.777 0 0 1 2.036-.849h.961v-8.173c0-.4.14-.74.42-1.021.281-.28.622-.421 1.022-.421h10.097c.4 0 .841.1 1.322.3.48.2.861.441 1.142.722l2.283 2.283c.28.28.521.661.721 1.142.2.48.3.922.3 1.322v3.846h.962c.792 0 1.47.283 2.036.85.566.565.849 1.244.849 2.035z" fill="#3E99E9"/><path d="M5.77 21.154h13.46v-3.846H5.77v3.846zm0-9.616h13.46V5.77h-2.403c-.4 0-.741-.14-1.022-.42a1.39 1.39 0 0 1-.42-1.022V1.923H5.769v9.615zm17.307.962a.924.924 0 0 0-.286-.676.924.924 0 0 0-.676-.286.924.924 0 0 0-.676.286.924.924 0 0 0-.285.676c0 .26.095.486.285.676.19.19.416.286.676.286.26 0 .486-.096.676-.286a.924.924 0 0 0 .286-.676zm1.923 0v6.25c0 .13-.048.243-.143.338a.462.462 0 0 1-.338.143h-3.365v2.404c0 .4-.14.74-.42 1.021-.281.28-.622.42-1.022.42H5.288c-.4 0-.74-.14-1.021-.42a1.39 1.39 0 0 1-.42-1.021V19.23H.48a.462.462 0 0 1-.338-.143A.462.462 0 0 1 0 18.75V12.5c0-.791.283-1.47.849-2.036a2.777 2.777 0 0 1 2.036-.849h.961V1.442c0-.4.14-.74.42-1.021A1.396 1.396 0 0 1 5.289 0h10.097c.4 0 .841.1 1.322.3.48.2.861.441 1.142.722l2.283 2.283c.28.28.521.661.721 1.142.2.48.3.922.3 1.322v3.846h.962c.792 0 1.47.283 2.036.85.566.565.849 1.244.849 2.035z" fill="#D6D6D6"/></g></svg>