<svg width="26" height="24" viewBox="0 0 26 24" xmlns="http://www.w3.org/2000/svg"><title>printer-icon</title><path d="M5.786 21.214h13.5v-3.857h-13.5v3.857zm0-9.643h13.5V5.786h-2.411c-.402 0-.743-.14-1.025-.422a1.395 1.395 0 0 1-.421-1.025V1.93H5.786v9.642zm17.357.965a.927.927 0 0 0-.286-.678.927.927 0 0 0-.678-.287.927.927 0 0 0-.678.287.927.927 0 0 0-.287.678c0 .26.096.487.287.678.19.19.416.286.678.286a.927.927 0 0 0 .678-.286.927.927 0 0 0 .286-.678zm1.928 0v6.268c0 .13-.047.243-.143.339a.463.463 0 0 1-.339.143h-3.375v2.41c0 .402-.14.744-.422 1.025a1.395 1.395 0 0 1-1.024.422H5.304c-.402 0-.744-.14-1.025-.422a1.395 1.395 0 0 1-.422-1.025v-2.41H.482a.463.463 0 0 1-.339-.143.463.463 0 0 1-.143-.34v-6.267c0-.794.284-1.474.851-2.042a2.785 2.785 0 0 1 2.042-.851h.964V1.446c0-.401.14-.743.422-1.024A1.395 1.395 0 0 1 5.304 0h10.125c.401 0 .843.1 1.325.301.483.201.864.442 1.146.724l2.29 2.29c.281.281.522.663.723 1.145.2.482.301.924.301 1.326v3.857h.965c.793 0 1.474.284 2.041.851.568.568.851 1.248.851 2.042z" fill="#D6D6D6" fill-rule="evenodd"/></svg>