<svg width="27" height="28" viewBox="0 0 27 28" xmlns="http://www.w3.org/2000/svg"><title>twitter-icon</title><path d="M13.5.146c-7.5 0-13.5 6-13.5 13.5s6 13.5 13.5 13.5 13.5-6 13.5-13.5-6-13.5-13.5-13.5m5.4 10.7v.4c0 3.7-2.8 7.9-7.9 7.9-1.6 0-3-.5-4.2-1.2h.7c1.3 0 2.5-.4 3.4-1.2-1.2 0-2.2-.8-2.6-1.9h.5c.3 0 .5 0 .7-.1-1.3-.3-2.2-1.4-2.2-2.7.4.2.8.3 1.3.3-.7-.5-1.2-1.3-1.2-2.3 0-.5.1-1 .4-1.4 1.4 1.7 3.4 2.8 5.7 2.9 0-.2-.1-.4-.1-.6 0-1.5 1.2-2.8 2.8-2.8.8 0 1.5.3 2 .9.6-.1 1.2-.4 1.8-.7-.2.6-.6 1.2-1.2 1.5.6-.1 1.1-.2 1.6-.4-.5.6-1 1.1-1.5 1.4" fill="#FFF" fill-rule="evenodd"/></svg>