<svg width="134" height="46" viewBox="0 0 134 46" xmlns="http://www.w3.org/2000/svg" xmlns:xlink="http://www.w3.org/1999/xlink"><title>uload-logo</title><defs><path id="a" d="M120.308 45.545H0V.03h120.308z"/><path id="c" d="M6.247 5.893V.377H.31v5.516h5.937z"/></defs><g fill="none" fill-rule="evenodd"><g transform="translate(0 .425)"><mask id="b" fill="#fff"><use xlink:href="#a"/></mask><path d="M112.499 5.026L60.154.03 7.81 5.026C3.257 5.912 0 8.514 0 12.857v19.86c0 4.343 3.257 6.944 7.81 7.831l52.344 4.997 52.345-4.997c4.552-.887 7.81-3.488 7.81-7.83V12.856c0-4.343-3.258-6.945-7.81-7.83" fill="#14499E" mask="url(#b)"/></g><path d="M24.368 14.972h3.666V32.43l-6.901.013-2.279.001c-3.368 0-5.576-.368-6.623-1.105-1.047-.735-1.57-2.287-1.57-4.656v-11.71h3.665L14.35 26c-.063 1.08.2 1.94 1.083 2.57.189.103.396.19.618.278 1.898.689 4.18.65 6.168.09 1.193-.228 1.925-.863 2.117-2.027.04-.327.056-.68.056-1.038l-.025-10.9z" fill="#FEFEFE"/><path d="M24.368 14.972h3.666V32.43l-6.901.013-2.279.001c-3.368 0-5.576-.368-6.623-1.105-1.047-.735-1.57-2.287-1.57-4.656v-11.71h3.665L14.35 26c-.063 1.08.2 1.94 1.083 2.57.189.103.396.19.618.278 1.898.689 4.18.65 6.168.09 1.193-.228 1.925-.863 2.117-2.027.04-.327.056-.68.056-1.038l-.025-10.9z" stroke="#FEFEFE"/><path fill="#FEFEFE" d="M38.283 15.16v14.377h9.058v2.944H34.617V15.16z"/><path stroke="#FEFEFE" d="M38.283 15.16v14.377h9.058v2.944H34.617V15.16z"/><path d="M59.642 18.057c2.378 0 3.782.263 4.21.792.43.528.638 2.243.638 5.145 0 2.893-.225 4.624-.678 5.195-.453.572-1.815.853-4.089.853-2.377 0-3.805-.254-4.291-.761-.486-.508-.729-1.999-.729-4.486 0-3.358.202-5.329.618-5.896.414-.567 1.859-.842 4.321-.842m.284-2.821c-3.945 0-6.43.525-7.439 1.583-1.01 1.058-1.508 3.655-1.508 7.784 0 3.468.51 5.708 1.538 6.728 1.028 1.019 3.301 1.532 6.812 1.532 3.896 0 6.354-.52 7.368-1.553 1.014-1.032 1.518-3.532 1.518-7.5 0-3.629-.509-5.957-1.518-7.001-1.01-1.045-3.262-1.573-6.771-1.573" fill="#FEFEFE"/><path d="M59.642 18.057c2.378 0 3.782.263 4.21.792.43.528.638 2.243.638 5.145 0 2.893-.225 4.624-.678 5.195-.453.572-1.815.853-4.089.853-2.377 0-3.805-.254-4.291-.761-.486-.508-.729-1.999-.729-4.486 0-3.358.202-5.329.618-5.896.414-.567 1.859-.842 4.321-.842zm.284-2.821c-3.945 0-6.43.525-7.439 1.583-1.01 1.058-1.508 3.655-1.508 7.784 0 3.468.51 5.708 1.538 6.728 1.028 1.019 3.301 1.532 6.812 1.532 3.896 0 6.354-.52 7.368-1.553 1.014-1.032 1.518-3.532 1.518-7.5 0-3.629-.509-5.957-1.518-7.001-1.01-1.045-3.262-1.573-6.771-1.573z" stroke="#FEFEFE"/><path d="M81.102 17.82l3.341 9.022h-6.63l3.29-9.022zM78.3 15.273l-6.428 17.323h3.877l1.204-3.329h8.34l1.224 3.329h3.816l-6.528-17.323H78.3z" fill="#FEFEFE"/><path d="M81.102 17.82l3.341 9.022h-6.63l3.29-9.022zM78.3 15.273l-6.428 17.323h3.877l1.204-3.329h8.34l1.224 3.329h3.816l-6.528-17.323H78.3z" stroke="#FEFEFE"/><path d="M98.193 17.929h5.445c1.708 0 2.797.341 3.26 1.035.462.694.688 2.316.688 4.87 0 2.471-.255 4.067-.769 4.79-.515.724-1.646 1.087-3.4 1.087h-5.224V17.929zm-3.663-2.77V32.48h9.604c3.048 0 5.003-.616 5.87-1.847.87-1.23 1.306-4.009 1.306-8.332 0-2.648-.538-4.503-1.62-5.56-1.08-1.058-2.968-1.584-5.666-1.584H94.53z" fill="#FEFEFE"/><path d="M98.193 17.929h5.445c1.708 0 2.797.341 3.26 1.035.462.694.688 2.316.688 4.87 0 2.471-.255 4.067-.769 4.79-.515.724-1.646 1.087-3.4 1.087h-5.224V17.929zm-3.663-2.77V32.48h9.604c3.048 0 5.003-.616 5.87-1.847.87-1.23 1.306-4.009 1.306-8.332 0-2.648-.538-4.503-1.62-5.56-1.08-1.058-2.968-1.584-5.666-1.584H94.53z" stroke="#FEFEFE"/><path fill="#14499E" d="M125.03 10.313h-1.685v-.857h4.351v.857h-1.686v4.659h-.98z"/><g transform="translate(127.64 9.079)"><mask id="d" fill="#fff"><use xlink:href="#c"/></mask><path fill="#14499E" mask="url(#d)" d="M.31.377h1.531l1.43 3.92h.023L4.71.376h1.538v5.516h-.971V1.46H5.26L3.59 5.893h-.684L1.258 1.46h-.015v4.433H.31z"/></g></g></svg>