<svg width="110" height="38" viewBox="0 0 110 38" xmlns="http://www.w3.org/2000/svg"><title>Uload-Logo-Footer</title><g fill="none" fill-rule="evenodd"><path d="M93.264 4.14L49.87 0 6.48 4.14C2.699 4.885 0 7.056 0 10.72v16.56c0 3.596 2.7 5.767 6.479 6.514L49.87 38l43.393-4.14c3.779-.746 6.478-2.917 6.478-6.514V10.79c0-3.732-2.7-5.903-6.478-6.65z" fill="#FFF"/><path d="M19.84 11.807v9.432c0 .34 0 .611-.067.815-.135.814-.607 1.221-1.485 1.425-1.687.475-3.509.475-4.926-.068-.202-.068-.337-.136-.472-.204-.608-.407-.81-.95-.743-1.9V11.74H8.436v10.11c0 2.104.472 3.46 1.417 4.14.945.678 2.767.95 5.668.95h8.099V11.806h-3.78zm12.215 12.147V11.943h-3.711v15.132h11.27v-3.121zM55.54 13.436c-.945-.95-2.834-1.425-5.871-1.425-3.375 0-5.534.475-6.411 1.425-.878.95-1.35 3.189-1.35 6.718 0 2.985.472 4.953 1.35 5.835.944.95 2.834 1.357 5.87 1.357 3.375 0 5.4-.475 6.344-1.425.945-.95 1.35-3.053 1.35-6.514.068-3.053-.405-5.021-1.282-5.971zm-9.38 2.171c.134-.203.674-.543 3.306-.543 2.497 0 3.105.407 3.24.543.202.204.472 1.018.472 4.072 0 3.053-.338 3.867-.472 4.139-.203.203-.81.61-3.105.61-2.43 0-3.104-.339-3.307-.542-.202-.204-.54-.95-.54-3.529-.067-3.596.203-4.546.406-4.75zm23.552-3.597H64.65l-5.533 15.133h3.914l1.012-2.782h6.411l1.012 2.782h3.914L69.712 12.01zm-.203 9.704h-4.521l2.227-6.175 2.294 6.175zm21.663-8.346c-.945-.95-2.565-1.425-4.927-1.425h-8.233v15.132h8.3c2.7 0 4.32-.543 5.13-1.696.742-1.086 1.147-3.461 1.147-7.125 0-2.308-.472-3.936-1.417-4.886zm-9.448 1.56h4.184c1.282 0 2.092.272 2.43.747.202.34.54 1.29.54 3.868 0 2.443-.338 3.46-.608 3.8-.337.475-1.215.746-2.564.746h-3.982v-9.16z" fill="#0D47A1"/><path d="M105.411 7.6h-3.51v.814h1.283v3.868h.945V8.414h1.282zm4.319 0h-1.012l-.81 2.24c-.135.339-.202.678-.337.95-.068-.272-.203-.544-.27-.95l-.81-2.24h-1.012l-.338 4.75h.877l.135-2.036c0-.271 0-.61.068-.882.067.204.135.475.202.679l.743 2.171h.674l.81-2.24c.068-.27.203-.474.27-.746 0 .272 0 .543.068.815l.135 2.171H110l-.27-4.682z" fill="#FFF"/></g></svg>