<?xml version="1.0" encoding="UTF-8" standalone="no"?>
<svg width="17px" height="19px" viewBox="0 0 17 19" version="1.1" xmlns="http://www.w3.org/2000/svg" xmlns:xlink="http://www.w3.org/1999/xlink">
    <!-- Generator: Sketch 40.1 (33804) - http://www.bohemiancoding.com/sketch -->
    <title>calendar-icon</title>
    <desc>Created with Sketch.</desc>
    <defs></defs>
    <g id="UI" stroke="none" stroke-width="1" fill="none" fill-rule="evenodd">
        <g id="Desktop-HD-ULoad-Checkout-Flow-Move-Information-1" transform="translate(-809.000000, -371.000000)" fill="#4FA0E8">
            <path d="M810.307692,388 L813.25,388 L813.25,385.057692 L810.307692,385.057692 L810.307692,388 Z M813.903846,388 L817.173077,388 L817.173077,385.057692 L813.903846,385.057692 L813.903846,388 Z M810.307692,384.403846 L813.25,384.403846 L813.25,381.134615 L810.307692,381.134615 L810.307692,384.403846 Z M813.903846,384.403846 L817.173077,384.403846 L817.173077,381.134615 L813.903846,381.134615 L813.903846,384.403846 Z M810.307692,380.480769 L813.25,380.480769 L813.25,377.538462 L810.307692,377.538462 L810.307692,380.480769 Z M817.826923,388 L821.096154,388 L821.096154,385.057692 L817.826923,385.057692 L817.826923,388 Z M813.903846,380.480769 L817.173077,380.480769 L817.173077,377.538462 L813.903846,377.538462 L813.903846,380.480769 Z M821.75,388 L824.692308,388 L824.692308,385.057692 L821.75,385.057692 L821.75,388 Z M817.826923,384.403846 L821.096154,384.403846 L821.096154,381.134615 L817.826923,381.134615 L817.826923,384.403846 Z M814.230769,375.576923 L814.230769,372.634615 C814.230769,372.546073 814.198418,372.469451 814.133714,372.404748 C814.06901,372.340044 813.992388,372.307692 813.903846,372.307692 L813.25,372.307692 C813.161458,372.307692 813.084836,372.340044 813.020132,372.404748 C812.955428,372.469451 812.923077,372.546073 812.923077,372.634615 L812.923077,375.576923 C812.923077,375.665465 812.955428,375.742087 813.020132,375.806791 C813.084836,375.871495 813.161458,375.903846 813.25,375.903846 L813.903846,375.903846 C813.992388,375.903846 814.06901,375.871495 814.133714,375.806791 C814.198418,375.742087 814.230769,375.665465 814.230769,375.576923 L814.230769,375.576923 Z M821.75,384.403846 L824.692308,384.403846 L824.692308,381.134615 L821.75,381.134615 L821.75,384.403846 Z M817.826923,380.480769 L821.096154,380.480769 L821.096154,377.538462 L817.826923,377.538462 L817.826923,380.480769 Z M821.75,380.480769 L824.692308,380.480769 L824.692308,377.538462 L821.75,377.538462 L821.75,380.480769 Z M822.076923,375.576923 L822.076923,372.634615 C822.076923,372.546073 822.044572,372.469451 821.979868,372.404748 C821.915164,372.340044 821.838542,372.307692 821.75,372.307692 L821.096154,372.307692 C821.007612,372.307692 820.93099,372.340044 820.866286,372.404748 C820.801582,372.469451 820.769231,372.546073 820.769231,372.634615 L820.769231,375.576923 C820.769231,375.665465 820.801582,375.742087 820.866286,375.806791 C820.93099,375.871495 821.007612,375.903846 821.096154,375.903846 L821.75,375.903846 C821.838542,375.903846 821.915164,375.871495 821.979868,375.806791 C822.044572,375.742087 822.076923,375.665465 822.076923,375.576923 L822.076923,375.576923 Z M826,374.923077 L826,388 C826,388.354168 825.870594,388.660656 825.611779,388.919471 C825.352963,389.178287 825.046476,389.307692 824.692308,389.307692 L810.307692,389.307692 C809.953524,389.307692 809.647037,389.178287 809.388221,388.919471 C809.129406,388.660656 809,388.354168 809,388 L809,374.923077 C809,374.568908 809.129406,374.262421 809.388221,374.003606 C809.647037,373.74479 809.953524,373.615385 810.307692,373.615385 L811.615385,373.615385 L811.615385,372.634615 C811.615385,372.185094 811.775439,371.800282 812.095553,371.480168 C812.415667,371.160054 812.800479,371 813.25,371 L813.903846,371 C814.353368,371 814.738179,371.160054 815.058293,371.480168 C815.378407,371.800282 815.538462,372.185094 815.538462,372.634615 L815.538462,373.615385 L819.461538,373.615385 L819.461538,372.634615 C819.461538,372.185094 819.621593,371.800282 819.941707,371.480168 C820.261821,371.160054 820.646632,371 821.096154,371 L821.75,371 C822.199521,371 822.584333,371.160054 822.904447,371.480168 C823.224561,371.800282 823.384615,372.185094 823.384615,372.634615 L823.384615,373.615385 L824.692308,373.615385 C825.046476,373.615385 825.352963,373.74479 825.611779,374.003606 C825.870594,374.262421 826,374.568908 826,374.923077 L826,374.923077 Z" id="calendar-icon"></path>
        </g>
    </g>
</svg>