<?xml version="1.0" encoding="UTF-8" standalone="no"?>
<svg width="52px" height="125px" viewBox="0 0 52 125" version="1.1" xmlns="http://www.w3.org/2000/svg" xmlns:xlink="http://www.w3.org/1999/xlink">
    <!-- Generator: Sketch 40.1 (33804) - http://www.bohemiancoding.com/sketch -->
    <title>Artboard</title>
    <desc>Created with Sketch.</desc>
    <defs>
        <rect id="path-1" x="0" y="0" width="50" height="30" rx="4"></rect>
        <rect id="path-3" x="0" y="0" width="50" height="30" rx="4"></rect>
    </defs>
    <g id="UI" stroke="none" stroke-width="1" fill="none" fill-rule="evenodd">
        <g id="Artboard">
            <g id="american-express-icon" transform="translate(1.000000, 63.000000)">
                <g id="UI-Library">
                    <g>
                        <g id="american-express-icon">
                            <g id="Group">
                                <rect id="Rectangle" fill="#0072CE" x="0" y="0" width="50" height="30" rx="4"></rect>
                                <path d="M42.2036806,17.3327915 L40.4371602,17.3327915 C40.2607895,17.3327915 40.1436167,17.3393764 40.0449127,17.4058348 C39.9426617,17.4713176 39.9032779,17.5685053 39.9032779,17.6967883 C39.9032779,17.8493376 39.9896286,17.9531102 40.1152408,17.9979849 C40.2174918,18.03347 40.327326,18.0438351 40.4887749,18.0438351 L41.0140955,18.0578584 C41.5441862,18.0709062 41.8980284,18.1617529 42.1137829,18.3833215 C42.1530444,18.4141728 42.1766502,18.4488043 42.2036806,18.4834358 L42.2036806,17.3327915 L42.2036806,17.3327915 Z M42.2036806,19.9988084 C41.9682343,20.342075 41.5094502,20.5160862 40.888361,20.5160862 L39.0165319,20.5160862 L39.0165319,19.648957 L40.8807778,19.648957 C41.0657103,19.648957 41.195114,19.6246905 41.2730254,19.5488426 C41.3405404,19.4862864 41.3876296,19.3954397 41.3876296,19.2850822 C41.3876296,19.1672863 41.3405404,19.0737568 41.2692338,19.0176635 C41.1989056,18.9559609 41.0965323,18.9279142 40.9277448,18.9279142 C40.0176376,18.8970629 38.8822357,18.9559609 38.8822357,17.676302 C38.8822357,17.0897612 39.2557698,16.4723691 40.2728981,16.4723691 L42.2035583,16.4723691 L42.2035583,15.6677961 L40.4097628,15.6677961 C39.8684196,15.6677961 39.4751936,15.7970546 39.1966942,15.9980149 L39.1966942,15.6677961 L36.5434277,15.6677961 C36.119135,15.6677961 35.6210895,15.7726662 35.3855208,15.9980149 L35.3855208,15.6677961 L30.6474837,15.6677961 L30.6474837,15.9980149 C30.2704026,15.726816 29.634147,15.6677961 29.3404812,15.6677961 L26.2152212,15.6677961 L26.2152212,15.9980149 C25.9169076,15.709988 25.2534992,15.6677961 24.849143,15.6677961 L21.3514496,15.6677961 L20.5510543,16.531389 L19.8014175,15.6677961 L14.5765875,15.6677961 L14.5765875,21.3102941 L19.7030805,21.3102941 L20.5278154,20.4330437 L21.3047273,21.3102941 L24.4647233,21.3130988 L24.4647233,19.9857606 L24.7753902,19.9857606 C25.1946682,19.9922236 25.6891667,19.9753956 26.1254458,19.7873611 L26.1254458,21.3101722 L28.7318676,21.3101722 L28.7318676,19.8395522 L28.8576021,19.8395522 C29.0180726,19.8395522 29.0338505,19.8461371 29.0338505,20.006003 L29.0338505,21.3100502 L36.9516978,21.3100502 C37.4543911,21.3100502 37.979834,21.1817673 38.270809,20.9489801 L38.270809,21.3100502 L40.7823184,21.3100502 C41.3049482,21.3100502 41.815347,21.237007 42.2036806,21.0499481 L42.2036806,19.9988084 L42.2036806,19.9988084 L42.2036806,19.9988084 Z M38.3373455,18.3833215 C38.5260696,18.5780627 38.6272198,18.8238977 38.6272198,19.2400856 C38.6272198,20.1100195 38.082085,20.5160862 37.104585,20.5160862 L35.2167333,20.5160862 L35.2167333,19.648957 L37.0970018,19.648957 C37.2808335,19.648957 37.4112157,19.6246905 37.4929187,19.5488426 C37.5595775,19.4862864 37.6074006,19.3954397 37.6074006,19.2850822 C37.6074006,19.1672863 37.5556636,19.0737568 37.4891271,19.0176635 C37.4150073,18.9559609 37.3127563,18.9279142 37.1439688,18.9279142 C36.2375309,18.8970629 35.1023736,18.9559609 35.1023736,17.676302 C35.1023736,17.0897612 35.4719938,16.4723691 36.4881437,16.4723691 L38.4312795,16.4723691 L38.4312795,17.3330354 L36.6532619,17.3330354 C36.4770135,17.3330354 36.3624092,17.3396203 36.2649283,17.4060787 C36.1587634,17.4715615 36.1193796,17.5687492 36.1193796,17.6970321 C36.1193796,17.8495815 36.2095219,17.9533541 36.3314648,17.9982288 C36.4337158,18.0337139 36.54355,18.0440789 36.7086682,18.0440789 L37.2304418,18.0581023 C37.7566186,18.0709062 38.1177994,18.161631 38.3373455,18.3833215 L38.3373455,18.3833215 L38.3373455,18.3833215 Z M29.5912163,18.1335843 C29.4615679,18.2102858 29.3012198,18.2168707 29.112618,18.2168707 L27.9351416,18.2168707 L27.9351416,17.308647 L29.1286406,17.308647 C29.3012198,17.308647 29.4739212,17.3123053 29.5912163,17.3816903 C29.7168285,17.4471731 29.7919267,17.5724075 29.7919267,17.7454431 C29.7919267,17.9184787 29.7168285,18.0578584 29.5912163,18.1335843 L29.5912163,18.1335843 L29.5912163,18.1335843 Z M30.176591,18.6368388 C30.3923455,18.716223 30.5687162,18.8585292 30.6513977,18.9763252 C30.7882623,19.1737492 30.8080765,19.3580035 30.8119904,19.7144398 L30.8119904,20.5160862 L29.8388936,20.5160862 L29.8388936,20.010149 C29.8388936,19.7668748 29.8623771,19.4066583 29.6822148,19.2186238 C29.54058,19.0737568 29.3247032,19.0391253 28.9711056,19.0391253 L27.9352639,19.0391253 L27.9352639,20.5160862 L26.961311,20.5160862 L26.961311,16.4722472 L29.1990911,16.4722472 C29.689798,16.4722472 30.0471872,16.4938309 30.365315,16.6630863 C30.6712118,16.8473406 30.8636052,17.0997605 30.8636052,17.5610669 C30.8634828,18.2065056 30.4317293,18.5358708 30.176591,18.6368388 L30.176591,18.6368388 L30.176591,18.6368388 Z M31.4010344,16.4722472 L34.6360063,16.4722472 L34.6360063,17.3085251 L32.3663034,17.3085251 L32.3663034,18.0437131 L34.5806,18.0437131 L34.5806,18.8687724 L32.3663034,18.8687724 L32.3663034,19.6733454 L34.6360063,19.6770036 L34.6360063,20.5160862 L31.4010344,20.5160862 L31.4010344,16.4722472 L31.4010344,16.4722472 L31.4010344,16.4722472 Z M24.8614963,18.3384468 L23.6089216,18.3384468 L23.6089216,17.308647 L24.8727488,17.308647 C25.2226771,17.308647 25.4655844,17.4508313 25.4655844,17.804463 C25.4655844,18.1541925 25.2339296,18.3384468 24.8614963,18.3384468 L24.8614963,18.3384468 L24.8614963,18.3384468 Z M22.6435304,20.1483093 L21.155387,18.5011174 L22.6435304,16.9062386 L22.6435304,20.1483093 L22.6435304,20.1483093 L22.6435304,20.1483093 Z M18.8004341,19.6733454 L16.41735,19.6733454 L16.41735,18.8687724 L18.5452959,18.8687724 L18.5452959,18.0437131 L16.41735,18.0437131 L16.41735,17.3085251 L18.8474011,17.3085251 L19.9075824,18.4869721 L18.8004341,19.6733454 L18.8004341,19.6733454 L18.8004341,19.6733454 Z M26.5061962,17.804463 C26.5061962,18.9277923 25.6655609,19.1597259 24.8183209,19.1597259 L23.6089216,19.1597259 L23.6089216,20.5160862 L21.7249838,20.5160862 L20.5314847,19.1774074 L19.2911411,20.5160862 L15.4518364,20.5160862 L15.4518364,16.4722472 L19.3502167,16.4722472 L20.5427372,17.7977562 L21.77562,16.4722472 L24.8727488,16.4722472 C25.6419551,16.4722472 26.5061962,16.6845481 26.5061962,17.804463 L26.5061962,17.804463 L26.5061962,17.804463 Z" id="EXPRESS" fill="#FFFFFF"></path>
                                <path d="M10.8274252,11.8121136 L10.1640168,10.2004068 L9.50440004,11.8121136 L10.8274252,11.8121136 L10.8274252,11.8121136 Z M25.4422232,11.1703331 C25.3090279,11.2509367 25.1514928,11.2536194 24.9627688,11.2536194 L23.7852924,11.2536194 L23.7852924,10.3556389 L24.9787914,10.3556389 C25.1477012,10.3556389 25.3239497,10.3631993 25.4384316,10.4285602 C25.5641661,10.4874581 25.6419551,10.6128145 25.6419551,10.785972 C25.6419551,10.9626659 25.5679577,11.1048502 25.4422232,11.1703331 L25.4422232,11.1703331 L25.4422232,11.1703331 Z M33.8422157,11.8121136 L33.1714688,10.2004068 L32.5043911,11.8121136 L33.8422157,11.8121136 L33.8422157,11.8121136 L33.8422157,11.8121136 Z M18.184115,13.5566151 L17.1904702,13.5566151 L17.1868009,10.3902704 L15.781339,13.5566151 L14.9303074,13.5566151 L13.5211762,10.3874657 L13.5211762,13.5566151 L11.5497868,13.5566151 L11.1773535,12.6548544 L9.15924178,12.6548544 L8.78301683,13.5566151 L7.73029638,13.5566151 L9.46599476,9.51375165 L10.9060704,9.51375165 L12.5545618,13.3415095 L12.5545618,9.51375165 L14.1365168,9.51375165 L15.4049918,12.2563481 L16.5702372,9.51375165 L18.1839927,9.51375165 L18.1839927,13.5566151 L18.184115,13.5566151 L18.184115,13.5566151 Z M22.1443841,13.5566151 L18.9064767,13.5566151 L18.9064767,9.51375165 L22.1443841,9.51375165 L22.1443841,10.3556389 L19.8757819,10.3556389 L19.8757819,11.084364 L22.0899562,11.084364 L22.0899562,11.9130815 L19.8757819,11.9130815 L19.8757819,12.7204592 L22.1443841,12.7204592 L22.1443841,13.5566151 L22.1443841,13.5566151 L22.1443841,13.5566151 Z M26.7097197,10.6025713 C26.7097197,11.2471565 26.2782107,11.58018 26.0267418,11.6801724 C26.238827,11.7606541 26.4199678,11.9028384 26.5061962,12.0206343 C26.6430609,12.2217166 26.6666667,12.4013371 26.6666667,12.7624072 L26.6666667,13.5566151 L25.6890444,13.5566151 L25.6853751,13.0467758 C25.6853751,12.8035016 25.7087363,12.4536502 25.5323656,12.2591528 C25.3907308,12.1169684 25.174854,12.0861171 24.8259042,12.0861171 L23.7854147,12.0861171 L23.7854147,13.5566151 L22.8162318,13.5566151 L22.8162318,9.51375165 L25.0455726,9.51375165 C25.5409272,9.51375165 25.9058997,9.52679944 26.2192574,9.70739547 C26.5258881,9.8879915 26.7097197,10.15163 26.7097197,10.6025713 L26.7097197,10.6025713 L26.7097197,10.6025713 Z M28.2608526,13.5566151 L27.2718555,13.5566151 L27.2718555,9.51375165 L28.2608526,9.51375165 L28.2608526,13.5566151 L28.2608526,13.5566151 L28.2608526,13.5566151 Z M39.7344904,13.5566151 L38.3609513,13.5566151 L36.5237358,10.5222116 L36.5237358,13.5566151 L34.5497779,13.5566151 L34.1725745,12.6548544 L32.1591106,12.6548544 L31.7931596,13.5566151 L30.6589809,13.5566151 C30.1878435,13.5566151 29.5913386,13.4527206 29.2535189,13.109454 C28.9128861,12.7661874 28.7356592,12.3012227 28.7356592,11.5660347 C28.7356592,10.9664461 28.8415795,10.4183171 29.2581667,9.98517924 C29.5715244,9.66252083 30.0622313,9.51375165 30.7301652,9.51375165 L31.668526,9.51375165 L31.668526,10.3800273 L30.749857,10.3800273 C30.3961371,10.3800273 30.1964052,10.4324623 30.0040119,10.6195213 C29.8387713,10.7897522 29.7253902,11.111557 29.7253902,11.5353053 C29.7253902,11.9684431 29.8117409,12.2807365 29.9919032,12.4847454 C30.1411212,12.6447332 30.412282,12.6932661 30.6674202,12.6932661 L31.1027208,12.6932661 L32.468799,9.5138736 L33.9211056,9.5138736 L35.5621362,13.3378513 L35.5621362,9.5138736 L37.0379262,9.5138736 L38.7417017,12.3295133 L38.7417017,9.5138736 L39.7344904,9.5138736 L39.7344904,13.5566151 L39.7344904,13.5566151 L39.7344904,13.5566151 Z M7.71904388,14.3507011 L9.37511858,14.3507011 L9.7485304,13.4527206 L10.5845179,13.4527206 L10.9569512,14.3507011 L14.2154066,14.3507011 L14.2154066,13.6641679 L14.5062593,14.3536277 L16.1978039,14.3536277 L16.4886566,13.6539248 L16.4886566,14.3507011 L24.5865439,14.3507011 L24.5827523,12.8766668 L24.7394311,12.8766668 C24.849143,12.880447 24.8811882,12.8905682 24.8811882,13.0711642 L24.8811882,14.3507011 L29.0694427,14.3507011 L29.0694427,14.0075565 C29.4072624,14.1880305 29.9327053,14.3507011 30.6241226,14.3507011 L32.3861176,14.3507011 L32.7631987,13.4527206 L33.5991862,13.4527206 L33.9679502,14.3507011 L37.3633926,14.3507011 L37.3633926,13.4977172 L37.877583,14.3507011 L40.5984868,14.3507011 L40.5984868,8.71210526 L37.9057142,8.71210526 L37.9057142,9.37803026 L37.5286331,8.71210526 L34.7655324,8.71210526 L34.7655324,9.37803026 L34.4192734,8.71210526 L30.6869898,8.71210526 C30.0622313,8.71210526 29.5130603,8.79904987 29.0694427,9.04134853 L29.0694427,8.71210526 L26.4938429,8.71210526 L26.4938429,9.04134853 C26.2115519,8.79161142 25.8268876,8.71210526 25.3991702,8.71210526 L15.9895103,8.71210526 L15.3581471,10.168458 L14.7097828,8.71210526 L11.7459718,8.71210526 L11.7459718,9.37803026 L11.4203831,8.71210526 L8.89272873,8.71210526 L7.71892157,11.3929991 L7.71892157,14.3507011 L7.71904388,14.3507011 L7.71904388,14.3507011 Z" id="AMERICAN" fill="#FFFFFF"></path>
                            </g>
                        </g>
                    </g>
                </g>
            </g>
            <g id="discover-icon" transform="translate(1.000000, 94.000000)">
                <g id="UI-Library">
                    <g>
                        <g id="discover-icon">
                            <g id="Group">
                                <g id="Rectangle">
                                    <g id="Mask-Clipped">
                                        <mask id="mask-2" fill="white">
                                            <use xlink:href="#path-1"></use>
                                        </mask>
                                        <g id="path-1"></g>
                                        <g id="Mask" mask="url(#mask-2)">
                                            <g id="Clipped">
                                                <mask id="mask-4" fill="white">
                                                    <use xlink:href="#path-3"></use>
                                                </mask>
                                                <g id="path-1"></g>
                                                <rect id="path-1" stroke="#E6772F" stroke-width="2" fill="#FFFFFF" mask="url(#mask-4)" x="0" y="0" width="50" height="30" rx="4"></rect>
                                            </g>
                                        </g>
                                    </g>
                                    <g id="Mask" transform="translate(12.000000, 16.000000)" fill="#E7772F">
                                        <path d="M0.0577084,14 L33.9933433,14 C36.2061587,14 38,12.2127158 38,10.0007134 L38,0.8490343 C38,0.8490343 24.599767,9.9339984 0.0577084,14 L0.0577084,14 Z" id="path-5"></path>
                                    </g>
                                </g>
                                <path d="M9.1442917,14.9110075 C8.76893495,15.2319548 8.29110135,15.3722989 7.52699065,15.3722989 L7.20992349,15.3722989 L7.20992349,11.5422985 L7.52699065,11.5422985 C8.29110135,11.5422985 8.75060194,11.6731964 9.1442917,12.0101123 C9.55067355,12.3582737 9.79487872,12.8953599 9.79487872,13.4508888 C9.79487872,14.0091166 9.55067355,14.5653201 9.1442917,14.9110075 L9.1442917,14.9110075 L9.1442917,14.9110075 Z M7.76367458,10.5612391 L6.0288542,10.5612391 L6.0288542,16.3538082 L7.75309784,16.3538082 C8.67068879,16.3538082 9.33302775,16.1448664 9.91357325,15.6837999 C10.6031767,15.1377173 11.012379,14.3131955 11.012379,13.4589855 C11.012379,11.7489912 9.67735939,10.5612391 7.76367458,10.5612391 L7.76367458,10.5612391 L7.76367458,10.5612391 Z" id="Fill-13" fill="#1A1918"></path>
                                <polygon id="Fill-14" fill="#1A1918" points="11.5569636 10.5612391 12.7333321 10.5612391 12.7333321 16.3538082 11.5569636 16.3538082"></polygon>
                                <path d="M15.6221923,12.7813303 C14.9121405,12.5321295 14.7046014,12.3661456 14.7046014,12.0530702 C14.7046014,11.6891651 15.0754924,11.4131999 15.5855263,11.4131999 C15.9390244,11.4131999 16.2302374,11.548596 16.5404884,11.8794393 L17.1546444,11.1084462 C16.6471959,10.6811163 16.039856,10.4647525 15.3777521,10.4647525 C14.3064459,10.4647525 13.4899216,11.1779436 13.4899216,12.1209932 C13.4899216,12.9216744 13.869509,13.3278627 14.9772462,13.7135842 C15.4402724,13.8676479 15.6755461,13.972906 15.7947107,14.0442026 C16.0306895,14.1901695 16.1482089,14.3993362 16.1482089,14.641115 C16.1482089,15.1123024 15.7580447,15.4586645 15.2306179,15.4586645 C14.6691105,15.4586645 14.2147808,15.1896716 13.9428411,14.6845227 L13.1817859,15.3898419 C13.7259004,16.1527382 14.3781327,16.4937025 15.2766855,16.4937025 C16.5021771,16.4937025 17.3657091,15.7085401 17.3657091,14.5902852 C17.3657091,13.668827 16.9652033,13.2511683 15.6221923,12.7813303" id="Fill-15" fill="#1A1918"></path>
                                <path d="M17.7366002,13.4589855 C17.7366002,15.1624574 19.133905,16.482457 20.9326559,16.482457 C21.4398693,16.482457 21.8746909,16.3866451 22.410109,16.1448664 L22.410109,14.8136213 C21.9369761,15.2686152 21.5216628,15.4480937 20.9843644,15.4480937 C19.7957739,15.4480937 18.9538654,14.6251463 18.9538654,13.4508888 C18.9538654,12.3414054 19.8230384,11.4624553 20.9326559,11.4624553 C21.492518,11.4624553 21.9202884,11.6522797 22.410109,12.1140209 L22.410109,10.7843502 C21.8927889,10.5340249 21.468309,10.4303412 20.9568649,10.4303412 C19.1684557,10.4303412 17.7366002,11.7762054 17.7366002,13.4589855" id="Fill-16" fill="#1A1918"></path>
                                <polyline id="Fill-17" fill="#1A1918" points="31.9743023 14.450166 30.3600567 10.5612391 29.072985 10.5612391 31.6391372 16.5 32.2720963 16.5 34.8880766 10.5612391 33.6111115 10.5612391 31.9743023 14.450166"></polyline>
                                <polyline id="Fill-18" fill="#1A1918" points="35.4237297 16.3538082 38.7713854 16.3538082 38.7713854 15.3722989 36.604799 15.3722989 36.604799 13.8087213 38.6891219 13.8087213 38.6891219 12.8274369 36.604799 12.8274369 36.604799 11.5422985 38.7713854 11.5422985 38.7713854 10.5612391 35.4237297 10.5612391 35.4237297 16.3538082"></polyline>
                                <path d="M41.0771147,13.2248537 L40.7344284,13.2248537 L40.7344284,11.4728012 L41.0963879,11.4728012 C41.8339392,11.4728012 42.2290392,11.7690083 42.2290392,12.3333086 C42.2290392,12.9131278 41.8339392,13.2248537 41.0771147,13.2248537 L41.0771147,13.2248537 L41.0771147,13.2248537 Z M43.4446592,12.2703337 C43.4446592,11.1855905 42.6671513,10.5612391 41.3041621,10.5612391 L39.5507736,10.5612391 L39.5507736,16.3538082 L40.7344284,16.3538082 L40.7344284,14.0248603 L40.8879086,14.0248603 L42.5188419,16.3538082 L43.9711458,16.3538082 L42.0666275,13.9124051 C42.9567189,13.7383243 43.4446592,13.1567059 43.4446592,12.2703337 L43.4446592,12.2703337 L43.4446592,12.2703337 Z" id="Fill-19" fill="#1A1918"></path>
                                <path d="M29.2393924,13.4724802 C29.2393924,15.1401913 27.8272801,16.4919032 26.0837633,16.4919032 C24.3407165,16.4919032 22.9283692,15.1401913 22.9283692,13.4724802 C22.9283692,11.8045441 24.3407165,10.4526073 26.0837633,10.4526073 C27.8272801,10.4526073 29.2393924,11.8045441 29.2393924,13.4724802" id="Fill-20" fill="#E7772F"></path>
                            </g>
                        </g>
                    </g>
                </g>
            </g>
            <g id="visa-icon" transform="translate(1.000000, 1.000000)">
                <g id="UI-Library">
                    <g>
                        <g id="visa-icon">
                            <g id="Group">
                                <rect id="Rectangle" fill="#26337A" x="0" y="0" width="50" height="30" rx="4"></rect>
                                <polyline id="Fill-3" fill="#FFFFFF" points="20.7449954 19.7733803 22.2823641 10.236338 24.7397926 10.236338 23.2025645 19.7733803 20.7449954 19.7733803"></polyline>
                                <path d="M32.1164355,10.4704225 C31.6305438,10.2790141 30.8663571,10.0702817 29.9143917,10.0702817 C27.4847926,10.0702817 25.7745438,11.364507 25.7603479,13.2177465 C25.7448871,14.5885915 26.9807696,15.3530986 27.9124954,15.8087324 C28.8700829,16.2757746 29.1918088,16.5746479 29.1880138,16.9922535 C29.1814078,17.6309859 28.4236866,17.923662 27.7171267,17.923662 C26.7332558,17.923662 26.2105392,17.7795775 25.4023594,17.4235211 L25.0862558,17.2716901 L24.7426037,19.4064789 C25.3156382,19.6721127 26.3779378,19.9026761 27.4804355,19.9147887 C30.0625346,19.9147887 31.7403157,18.6361972 31.7599931,16.6571831 C31.7688479,15.5701408 31.1140115,14.7461972 29.6958318,14.0659155 C28.837053,13.623662 28.3099793,13.3307042 28.316023,12.8830986 C28.3165853,12.4867606 28.7612949,12.0623944 29.7238018,12.0623944 C30.5276244,12.0494366 31.1095138,12.2350704 31.5629378,12.4288732 L31.783606,12.5378873 L32.1164355,10.4704225" id="Fill-4" fill="#FFFFFF"></path>
                                <path d="M35.3886498,16.3921127 C35.5923111,15.8439437 36.3676014,13.726338 36.3676014,13.726338 C36.353265,13.7515493 36.5701382,13.1739437 36.6942465,12.8164789 L36.8600991,13.6390141 C36.8600991,13.6390141 37.3316544,15.9153521 37.4287765,16.3921127 L35.3886498,16.3921127 L35.3886498,16.3921127 L35.3886498,16.3921127 Z M38.4203779,10.2460563 L36.5212258,10.2460563 C35.9321682,10.2460563 35.4912535,10.4147887 35.2331982,11.0366197 L31.5837396,19.7767606 L34.1648548,19.7767606 C34.1648548,19.7767606 34.5859516,18.6009859 34.6815276,18.3429577 C34.9630553,18.3429577 37.4710829,18.3478873 37.8290714,18.3478873 C37.9027212,18.6807042 38.1283088,19.7767606 38.1283088,19.7767606 L40.4092028,19.7767606 L38.4203779,10.2460563 L38.4203779,10.2460563 L38.4203779,10.2460563 Z" id="Fill-5" fill="#FFFFFF"></path>
                                <path d="M18.6833641,10.2443662 L16.2780806,16.746338 L16.020447,15.4246479 C15.5722235,13.901831 14.1769539,12.2512676 12.6162535,11.4242254 L14.8167512,19.7650704 L17.4175438,19.7635211 L21.28753,10.2443662 L18.6833641,10.2443662" id="Fill-6" fill="#FFFFFF"></path>
                                <path d="M14.0452558,10.2378873 L10.0823641,10.2378873 L10.0497558,10.435493 C13.1333479,11.225493 15.1736152,13.1323944 16.020447,15.4246479 L15.1592788,11.0425352 C15.0107143,10.438169 14.5789355,10.2590141 14.0452558,10.2378873" id="Fill-7" fill="#ED982D"></path>
                            </g>
                        </g>
                    </g>
                </g>
            </g>
            <g id="mc-icon" transform="translate(1.000000, 32.000000)">
                <g id="UI-Library">
                    <g>
                        <g id="mc-icon">
                            <g id="Group">
                                <rect id="Rectangle" fill="#000066" x="0" y="0" width="50" height="30" rx="4"></rect>
                                <path d="M28.0643105,15.2427011 C28.0643105,20.6318289 23.6959851,25 18.3070115,25 C12.9178837,25 8.54925,20.6318289 8.54925,15.2427011 C8.54925,9.85372747 12.9178837,5.48509375 18.3070115,5.48509375 C23.6959851,5.48509375 28.0643105,9.85372747 28.0643105,15.2427011" id="Fill-333" fill="#CC0000"></path>
                                <path d="M31.4070531,5.48509375 C28.88527,5.48509375 26.5883102,6.44159493 24.8563384,8.0107318 C24.5039919,8.33054213 24.1750838,8.67594962 23.8714645,9.04371607 L25.8429085,9.04371607 C26.1121413,9.37154478 26.3602488,9.71618127 26.5867682,10.0771629 L23.1274506,10.0771629 C22.9205145,10.4088466 22.7323908,10.7534831 22.5652382,11.1106098 L27.1486722,11.1106098 C27.3053392,11.4450691 27.4431938,11.7895514 27.5619276,12.1435941 L22.1519828,12.1435941 C22.039417,12.480058 21.9444299,12.8248487 21.8685636,13.1764241 L27.8450384,13.1764241 C27.9881358,13.8425672 28.0643105,14.5336905 28.0643105,15.2427011 C28.0643105,16.3259545 27.8877517,17.3686533 27.5619276,18.3424249 L22.1519828,18.3424249 C22.2707166,18.6961592 22.4085712,19.041104 22.5649298,19.3760259 L27.1486722,19.3760259 C26.9812113,19.7322274 26.7940127,20.0771723 26.585843,20.4093186 L23.1274506,20.4093186 C23.3530448,20.7692209 23.6016149,21.11432 23.8714645,21.4416861 L25.8422917,21.4416861 C25.5392892,21.8097609 25.2100727,22.1551684 24.8566468,22.4749787 C26.5884644,24.0441156 28.88527,25 31.4070531,25 C36.7958725,25 41.164352,20.6318289 41.164352,15.2427011 C41.164352,9.85419007 36.7958725,5.48509375 31.4070531,5.48509375" id="Fill-334" fill="#FF9900"></path>
                                <path d="M16.0284015,16.3109971 C15.9172235,16.2983527 15.8681879,16.2943435 15.7918591,16.2943435 C15.1914051,16.2943435 14.8877858,16.5003544 14.8877858,16.9072876 C14.8877858,17.1578622 15.0359718,17.3171506 15.2672714,17.3171506 C15.6988766,17.3171506 16.0098975,16.9063624 16.0284015,16.3109971 L16.0284015,16.3109971 L16.0284015,16.3109971 Z M16.7989378,18.1044946 L15.9209243,18.1044946 L15.9411244,17.6873842 C15.6734336,18.016755 15.3161528,18.1740387 14.8308861,18.1740387 C14.2569545,18.1740387 13.8632825,17.7259342 13.8632825,17.0747486 C13.8632825,16.0945006 14.5477753,15.5228821 15.7229318,15.5228821 C15.8433618,15.5228821 15.9972532,15.5339844 16.1548453,15.5538762 C16.1875357,15.420956 16.1961709,15.3645189 16.1961709,15.292816 C16.1961709,15.0263588 16.0117479,14.9264373 15.5169209,14.9264373 C14.9986554,14.9211946 14.5712137,15.0502598 14.3955801,15.1079305 C14.4066825,15.0410078 14.5425325,14.2026236 14.5425325,14.2026236 C15.0702041,14.0474986 15.4183872,13.9895195 15.8102088,13.9895195 C16.7199875,13.9895195 17.2018618,14.3978405 17.2007824,15.1697646 C17.2026328,15.3768549 17.1682462,15.6314387 17.1150473,15.9672858 C17.0231442,16.5501609 16.8257685,17.8002585 16.7989378,18.1044946 L16.7989378,18.1044946 L16.7989378,18.1044946 Z" id="Fill-336" fill="#000066"></path>
                                <polyline id="Fill-337" fill="#000066" points="13.4199582 18.1044946 12.3604515 18.1044946 12.9676902 14.3000779 11.6124285 18.1044946 10.8906193 18.1044946 10.8013377 14.3213574 10.1635674 18.1044946 9.17206288 18.1044946 10.0002698 13.1551446 11.5236094 13.1551446 11.6156667 15.9254977 12.5450287 13.1551446 14.2392216 13.1551446 13.4199582 18.1044946"></polyline>
                                <path d="M32.7159008,16.3109971 C32.6047227,16.2983527 32.556304,16.2943435 32.4801293,16.2943435 C31.8792128,16.2943435 31.5759018,16.5003544 31.5759018,16.9072876 C31.5759018,17.1578622 31.723471,17.3171506 31.9553875,17.3171506 C32.3866842,17.3171506 32.6978594,16.9063624 32.7159008,16.3109971 L32.7159008,16.3109971 L32.7159008,16.3109971 Z M33.4868996,18.1044946 L32.6091945,18.1044946 L32.6290863,17.6873842 C32.3613955,18.016755 32.0042688,18.1740387 31.5193105,18.1740387 C30.944608,18.1740387 30.5513986,17.7259342 30.5513986,17.0747486 C30.5513986,16.0945006 31.2361997,15.5228821 32.4110478,15.5228821 C32.5313236,15.5228821 32.6849066,15.5339844 32.842653,15.5538762 C32.8754975,15.420956 32.8839785,15.3645189 32.8839785,15.292816 C32.8839785,15.0263588 32.6995556,14.9264373 32.2047285,14.9264373 C31.6864631,14.9211946 31.2591755,15.0502598 31.0829252,15.1079305 C31.0946444,15.0410078 31.2308028,14.2026236 31.2308028,14.2026236 C31.758166,14.0474986 32.1066575,13.9895195 32.4978623,13.9895195 C33.4082577,13.9895195 33.8895152,14.3978405 33.88859,15.1697646 C33.8904404,15.3768549 33.8563623,15.6314387 33.8028549,15.9672858 C33.7112603,16.5501609 33.513422,17.8002585 33.4868996,18.1044946 L33.4868996,18.1044946 L33.4868996,18.1044946 Z" id="Fill-338" fill="#000066"></path>
                                <path d="M21.5066568,18.0432773 C21.216607,18.1345636 20.9907043,18.1740387 20.7455267,18.1740387 C20.2041313,18.1740387 19.9085303,17.8628636 19.9085303,17.289703 C19.9009746,17.1117565 19.9864012,16.6437602 20.0536323,16.2169352 C20.1150038,15.840842 20.5131477,13.4701747 20.5131477,13.4701747 L21.5658695,13.4701747 L21.4429723,14.079418 L22.0790463,14.079418 L21.9354863,15.0468674 L21.2972535,15.0468674 C21.1749731,15.8121608 21.0005731,16.7657322 20.9985685,16.892176 C20.9985685,17.0997289 21.109284,17.1903984 21.3614006,17.1903984 C21.482139,17.1903984 21.5755841,17.1780624 21.6469786,17.1524652 L21.5066568,18.0432773" id="Fill-339" fill="#000066"></path>
                                <path d="M24.7349832,18.0107412 C24.3732305,18.1213024 24.0245848,18.1752723 23.6546596,18.1740387 C22.4758023,18.1724967 21.8613163,17.5572396 21.8613163,16.3783824 C21.8613163,15.002612 22.6429549,13.9895195 23.7043119,13.9895195 C24.5723024,13.9895195 25.126959,14.5566663 25.126959,15.4457822 C25.126959,15.7413831 25.0890259,16.0294283 24.9969686,16.4358989 L22.9001601,16.4358989 C22.8293824,17.0198534 23.2028543,17.2630265 23.8157984,17.2630265 C24.1922,17.2630265 24.5323647,17.1853098 24.9103083,17.0099847 L24.7349832,18.0107412 L24.7349832,18.0107412 L24.7349832,18.0107412 Z M24.1431645,15.6246539 C24.1491783,15.540615 24.2546509,14.906083 23.6528092,14.906083 C23.3178873,14.906083 23.0777982,15.1617462 22.9804982,15.6246539 L24.1431645,15.6246539 L24.1431645,15.6246539 L24.1431645,15.6246539 Z" id="Fill-340" fill="#000066"></path>
                                <path d="M17.4342408,15.3520287 C17.4342408,15.8607338 17.6809605,16.2118466 18.2407056,16.4756824 C18.6695352,16.6775299 18.7363037,16.7372053 18.7363037,16.919932 C18.7363037,17.1705066 18.5469464,17.284306 18.1279856,17.284306 C17.8117219,17.284306 17.5178171,17.2346537 17.1787318,17.1250177 C17.1787318,17.1250177 17.0397978,18.0125916 17.0331672,18.0549965 C17.2738731,18.107116 17.4885191,18.155689 18.1355414,18.1740387 C19.2531813,18.1740387 19.7694422,17.7484474 19.7694422,16.8286457 C19.7694422,16.2756853 19.5535625,15.9510948 19.0228069,15.7068424 C18.5788657,15.5031445 18.5275172,15.4575014 18.5275172,15.269686 C18.5275172,15.0521102 18.7037675,14.9409321 19.0459368,14.9409321 C19.2539523,14.9409321 19.5378341,14.9631369 19.8072211,15.0012242 L19.9578743,14.0676988 C19.6837071,14.0240603 19.2676761,13.9895195 19.0255825,13.9895195 C17.8407114,13.9895195 17.4303858,14.6083232 17.4342408,15.3520287" id="Fill-341" fill="#000066"></path>
                                <path d="M29.8869517,14.0957632 C30.1811649,14.0957632 30.4559489,14.1722463 30.8335841,14.3629914 L31.0070589,13.2888358 C30.8513171,13.2277727 30.3052957,12.869875 29.8426964,12.869875 C29.1339943,12.869875 28.5341572,13.2220673 28.1130376,13.8020126 C27.4980889,13.5984689 27.2450471,14.0098739 26.9354139,14.4200453 L26.6601673,14.4841924 C26.6809843,14.3492676 26.6999509,14.215268 26.6939371,14.079418 L25.7206281,14.079418 C25.5880163,15.3255064 25.3525533,16.5871689 25.1682845,17.8337198 L25.12002,18.1044946 L26.179835,18.1044946 C26.3567022,16.9550895 26.4533854,16.2194024 26.5122898,15.7210288 L26.9113588,15.4999063 C26.9713425,15.2777044 27.1574616,15.2030717 27.5318586,15.2121695 C27.4829773,15.4746175 27.456455,15.7510977 27.456455,16.0371383 C27.456455,17.3541585 28.1679327,18.1740387 29.3077774,18.1740387 C29.601528,18.1740387 29.8537988,18.1354888 30.2443868,18.0290909 L30.4300433,16.9012738 C30.0787763,17.0738234 29.7911937,17.1550866 29.5304419,17.1550866 C28.914568,17.1550866 28.5418671,16.7003515 28.5418671,15.9492444 C28.5418671,14.8592062 29.0957527,14.0957632 29.8869517,14.0957632" id="Fill-342" fill="#000066"></path>
                                <path d="M38.8555188,13.1551446 L38.6200558,14.585039 C38.3309312,14.2040114 38.0197561,13.9279938 37.6089679,13.9279938 C37.0745115,13.9279938 36.5880112,14.3332308 36.2694345,14.9299839 C35.8258017,14.8379267 35.3673658,14.6814139 35.3673658,14.6814139 L35.3670574,14.6852689 C35.4023692,14.3517348 35.4173265,14.1488079 35.4137799,14.079418 L34.4406252,14.079418 C34.308476,15.3255064 34.0727045,16.5871689 33.88859,17.8337198 L33.8398629,18.1044946 L34.8999863,18.1044946 C35.0430837,17.1755952 35.1524113,16.4033628 35.2330578,15.7918065 C35.5954273,15.4642861 35.7767662,15.1794792 36.1420655,15.1979831 C35.9800015,15.589959 35.885477,16.0411475 35.885477,16.5040552 C35.885477,17.5099003 36.3940279,18.1740387 37.16441,18.1740387 C37.552685,18.1740387 37.8505989,18.0400391 38.1411113,17.7297892 L38.0911506,18.1041862 L39.0934491,18.1041862 L39.9003765,13.1551446 L38.8555188,13.1551446 L38.8555188,13.1551446 L38.8555188,13.1551446 Z M37.5307886,17.17467 C37.1702695,17.17467 36.987697,16.9072876 36.987697,16.381158 C36.987697,15.589959 37.3289411,15.0291344 37.8092734,15.0291344 C38.1733391,15.0291344 38.3707148,15.3060772 38.3707148,15.8174036 C38.3707148,16.6153874 38.0237653,17.17467 37.5307886,17.17467 L37.5307886,17.17467 L37.5307886,17.17467 Z" id="Fill-343" fill="#000066"></path>
                                <polyline id="Fill-344" fill="#FFFFFF" points="13.7246569 17.8107441 12.6654587 17.8107441 13.2725432 14.0063273 11.9175898 17.8107441 11.1954723 17.8107441 11.1063448 14.0283779 10.4684204 17.8107441 9.47691582 17.8107441 10.3051228 12.8618566 11.8284623 12.8618566 11.8710215 15.9254977 12.8989171 12.8618566 14.5440745 12.8618566 13.7246569 17.8107441"></polyline>
                                <path d="M16.3332545,16.0178633 C16.2222306,16.0049105 16.1731951,16.0013639 16.0968662,16.0013639 C15.4964123,16.0013639 15.1926387,16.2070664 15.1926387,16.6136912 C15.1926387,16.8639575 15.3409789,17.024171 15.5724328,17.024171 C16.0038837,17.024171 16.3149047,16.6133828 16.3332545,16.0178633 L16.3332545,16.0178633 L16.3332545,16.0178633 Z M17.1036365,17.8107441 L16.2260856,17.8107441 L16.2461316,17.3939421 C15.9784408,17.7231586 15.6211599,17.8805966 15.1358932,17.8805966 C14.5618075,17.8805966 14.1682897,17.4318752 14.1682897,16.7808438 C14.1682897,15.8004416 14.8529366,15.2295941 16.0280931,15.2295941 C16.1482147,15.2295941 16.3021061,15.2405423 16.4598525,15.2608966 C16.4925428,15.127668 16.501178,15.0710767 16.501178,14.9990654 C16.501178,14.7327624 16.3167551,14.633612 15.821928,14.633612 C15.3035084,14.627444 14.8762208,14.7565092 14.7004331,14.8140257 C14.7116897,14.7474114 14.8473855,13.9090273 14.8473855,13.9090273 C15.3752113,13.7542107 15.7233944,13.695769 16.115216,13.695769 C17.0248404,13.695769 17.5065605,14.1045526 17.5057895,14.8761682 C17.5074857,15.0829501 17.4734076,15.3387675 17.4200544,15.6736894 C17.3279972,16.256102 17.1306215,17.5069705 17.1036365,17.8107441 L17.1036365,17.8107441 L17.1036365,17.8107441 Z" id="Fill-345" fill="#FFFFFF"></path>
                                <path d="M31.3117576,12.9950852 L31.1382829,14.0690866 C30.7600309,13.8789583 30.4860179,13.8020126 30.1921131,13.8020126 C29.4012225,13.8020126 28.8464117,14.5663809 28.8464117,15.6565733 C28.8464117,16.4076803 29.2192667,16.8614903 29.8351406,16.8614903 C30.0960466,16.8614903 30.384246,16.7808438 30.7347421,16.6076774 L30.548623,17.7354946 C30.1586517,17.8417382 29.9062267,17.8805966 29.6126304,17.8805966 C28.4720146,17.8805966 27.7616163,17.0605622 27.7616163,15.7438503 C27.7616163,13.9745622 28.7437146,12.7380342 30.1475494,12.7380342 C30.6101487,12.7380342 31.1564785,12.9340221 31.3117576,12.9950852" id="Fill-346" fill="#FFFFFF"></path>
                                <path d="M33.0205995,16.0178633 C32.9101925,16.0049105 32.8610027,16.0013639 32.784828,16.0013639 C32.1846825,16.0013639 31.8807548,16.2070664 31.8807548,16.6136912 C31.8807548,16.8639575 32.0289408,17.024171 32.2602404,17.024171 C32.6915372,17.024171 33.0028665,16.6133828 33.0205995,16.0178633 L33.0205995,16.0178633 L33.0205995,16.0178633 Z M33.7915984,17.8107441 L32.9140475,17.8107441 L32.9339392,17.3939421 C32.6662484,17.7231586 32.3089676,17.8805966 31.8241635,17.8805966 C31.2494609,17.8805966 30.8564057,17.4318752 30.8564057,16.7808438 C30.8564057,15.8004416 31.5404359,15.2295941 32.7159008,15.2295941 C32.8360224,15.2295941 32.9896053,15.2405423 33.1471975,15.2608966 C33.1800421,15.127668 33.1886772,15.0710767 33.1886772,14.9990654 C33.1886772,14.7327624 33.0047169,14.633612 32.5095815,14.633612 C31.9916244,14.627444 31.5644911,14.7565092 31.3883949,14.8140257 C31.3994973,14.7474114 31.5353473,13.9090273 31.5353473,13.9090273 C32.0631731,13.7542107 32.4110478,13.695769 32.8028694,13.695769 C33.7124939,13.695769 34.1946766,14.1045526 34.193443,14.8761682 C34.1956018,15.0829501 34.1612152,15.3387675 34.1078621,15.6736894 C34.0161132,16.256102 33.8187375,17.5069705 33.7915984,17.8107441 L33.7915984,17.8107441 L33.7915984,17.8107441 Z" id="Fill-347" fill="#FFFFFF"></path>
                                <path d="M21.8113555,17.749681 C21.5216142,17.8409672 21.2954031,17.8805966 21.0505339,17.8805966 C20.5089843,17.8805966 20.2132291,17.5692672 20.2132291,16.9967235 C20.2058275,16.8181601 20.2914084,16.3509348 20.3587937,15.9236473 C20.4197026,15.5472456 20.8180006,13.1768867 20.8180006,13.1768867 L21.8710308,13.1768867 L21.7478252,13.7859758 L22.2884496,13.7859758 L22.144427,14.7531168 L21.6021064,14.7531168 C21.479826,15.5191813 21.3054261,16.4721359 21.3032673,16.5985797 C21.3032673,16.8067494 21.4144453,16.896802 21.6662535,16.896802 C21.786992,16.896802 21.8802828,16.8849286 21.9519857,16.8587147 L21.8113555,17.749681" id="Fill-348" fill="#FFFFFF"></path>
                                <path d="M25.0402987,17.7177616 C24.6783919,17.8286312 24.3289752,17.880905 23.9595125,17.8805966 C22.7805011,17.8798256 22.1664776,17.2637975 22.1664776,16.0850944 C22.1664776,14.7088615 22.947962,13.695769 24.0085481,13.695769 C24.8774638,13.695769 25.431812,14.2629157 25.431812,15.153111 C25.431812,15.4480952 25.393262,15.7359861 25.3022841,16.1426109 L23.2051673,16.1426109 C23.1340812,16.7265655 23.5080156,16.9702011 24.1203429,16.9702011 C24.4970529,16.9702011 24.8370634,16.892176 25.2154697,16.7163883 L25.0402987,17.7177616 L25.0402987,17.7177616 L25.0402987,17.7177616 Z M24.4483258,15.3309033 C24.4540312,15.2467103 24.5599664,14.6124866 23.9582789,14.6124866 C23.6230486,14.6124866 23.3829596,14.8686124 23.2853511,15.3309033 L24.4483258,15.3309033 L24.4483258,15.3309033 L24.4483258,15.3309033 Z" id="Fill-349" fill="#FFFFFF"></path>
                                <path d="M17.7389396,15.0582781 C17.7389396,15.5679084 17.9859676,15.9182503 18.545867,16.1823945 C18.9746965,16.3840878 19.0411566,16.4437631 19.0411566,16.626644 C19.0411566,16.877527 18.8519535,16.9907097 18.4326843,16.9907097 C18.116729,16.9907097 17.82267,16.9416742 17.4834305,16.8323465 C17.4834305,16.8323465 17.3446508,17.7193036 17.3381744,17.7610917 C17.578726,17.8138281 17.7935263,17.8619384 18.4402401,17.8805966 C19.5581885,17.8805966 20.0744493,17.4551594 20.0744493,16.5353578 C20.0744493,15.982089 19.8582612,15.6576527 19.3276598,15.414017 C18.8835645,15.2097023 18.8325243,15.1645218 18.8325243,14.9763981 C18.8325243,14.7588222 19.0086205,14.6468732 19.3510982,14.6468732 C19.5586511,14.6468732 19.8428412,14.6700031 20.112074,14.7079363 L20.2628814,13.7745651 C19.98856,13.7312349 19.5728374,13.695769 19.3305896,13.695769 C18.1454102,13.695769 17.735393,14.3147269 17.7389396,15.0582781" id="Fill-350" fill="#FFFFFF"></path>
                                <path d="M39.398302,17.8107441 L38.3963119,17.8107441 L38.4459643,17.4361928 C38.1552977,17.746597 37.8575379,17.8805966 37.4692629,17.8805966 C36.6994976,17.8805966 36.1901758,17.2172291 36.1901758,16.2103046 C36.1901758,14.8715422 36.9798328,13.7431083 37.9138208,13.7431083 C38.324609,13.7431083 38.63563,13.9108776 38.9253713,14.2920595 L39.1603718,12.8618566 L40.2050752,12.8618566 L39.398302,17.8107441 L39.398302,17.8107441 L39.398302,17.8107441 Z M37.8354874,16.8807652 C38.3290808,16.8807652 38.6754135,16.3217911 38.6754135,15.5245783 C38.6754135,15.0130976 38.478192,14.7352296 38.1141263,14.7352296 C37.6336399,14.7352296 37.29255,15.2962084 37.29255,16.0877158 C37.29255,16.6144622 37.4752767,16.8807652 37.8354874,16.8807652 L37.8354874,16.8807652 L37.8354874,16.8807652 Z" id="Fill-351" fill="#FFFFFF"></path>
                                <path d="M34.7457865,13.7859758 C34.6133289,15.0317558 34.3777117,16.2934183 34.193443,17.5401235 L34.1451784,17.8107441 L35.2046851,17.8107441 C35.5837081,15.3494073 35.6748402,14.869075 36.2694345,14.9290587 C36.3639589,14.4252881 36.5402093,13.9841225 36.6714333,13.7617665 C36.2278005,13.6692466 35.9800015,13.9199754 35.6552568,14.3964527 C35.6811624,14.1902876 35.7278849,13.9902905 35.7190955,13.7859758 L34.7457865,13.7859758" id="Fill-352" fill="#FFFFFF"></path>
                                <path d="M26.0259437,13.7859758 C25.8928693,15.0317558 25.6569436,16.2934183 25.4729833,17.5401235 L25.424873,17.8107441 L26.484688,17.8107441 C26.8638652,15.3494073 26.9546889,14.869075 27.548358,14.9290587 C27.6434993,14.4252881 27.820058,13.9841225 27.9509736,13.7617665 C27.5078035,13.6692466 27.2595418,13.9199754 26.9354139,14.3964527 C26.9610111,14.1902876 27.008042,13.9902905 26.99879,13.7859758 L26.0259437,13.7859758" id="Fill-353" fill="#FFFFFF"></path>
                            </g>
                        </g>
                    </g>
                </g>
            </g>
        </g>
    </g>
</svg>