<?xml version="1.0" encoding="UTF-8" standalone="no"?>
<svg width="50px" height="30px" viewBox="0 0 50 30" version="1.1" xmlns="http://www.w3.org/2000/svg" xmlns:xlink="http://www.w3.org/1999/xlink">
    <!-- Generator: Sketch 40.1 (33804) - http://www.bohemiancoding.com/sketch -->
    <title>discover-icon</title>
    <desc>Created with Sketch.</desc>
    <defs>
        <rect id="path-1" x="0" y="0" width="50" height="30" rx="4"></rect>
        <mask id="mask-2" maskContentUnits="userSpaceOnUse" maskUnits="objectBoundingBox" x="0" y="0" width="50" height="30" fill="white">
            <use xlink:href="#path-1"></use>
        </mask>
        <mask id="mask-4" maskContentUnits="userSpaceOnUse" maskUnits="objectBoundingBox" x="0" y="0" width="50" height="30" fill="white">
            <use xlink:href="#path-1"></use>
        </mask>
        <path d="M12.0577084,30 L45.9933433,30 C48.2061587,30 50,28.2127158 50,26.0007134 L50,16.8490343 C50,16.8490343 36.599767,25.9339984 12.0577084,30 Z" id="path-5"></path>
    </defs>
    <g id="UI-Library" stroke="none" stroke-width="1" fill="none" fill-rule="evenodd">
        <g transform="translate(-932.000000, -821.000000)" id="discover-icon">
            <g transform="translate(932.000000, 821.000000)">
                <g id="Rectangle">
                    <mask id="mask-3" fill="white">
                        <use xlink:href="#path-1"></use>
                    </mask>
                    <g id="Mask" stroke="#E6772F" mask="url(#mask-2)" stroke-width="2" fill="#FFFFFF">
                        <use mask="url(#mask-4)" xlink:href="#path-1"></use>
                    </g>
                    <mask id="mask-6" fill="white">
                        <use xlink:href="#path-5"></use>
                    </mask>
                    <use id="Mask" fill="#E7772F" xlink:href="#path-5"></use>
                </g>
                <path d="M9.1442917,14.9110075 C8.76893495,15.2319548 8.29110135,15.3722989 7.52699065,15.3722989 L7.20992349,15.3722989 L7.20992349,11.5422985 L7.52699065,11.5422985 C8.29110135,11.5422985 8.75060194,11.6731964 9.1442917,12.0101123 C9.55067355,12.3582737 9.79487872,12.8953599 9.79487872,13.4508888 C9.79487872,14.0091166 9.55067355,14.5653201 9.1442917,14.9110075 L9.1442917,14.9110075 Z M7.76367458,10.5612391 L6.0288542,10.5612391 L6.0288542,16.3538082 L7.75309784,16.3538082 C8.67068879,16.3538082 9.33302775,16.1448664 9.91357325,15.6837999 C10.6031767,15.1377173 11.012379,14.3131955 11.012379,13.4589855 C11.012379,11.7489912 9.67735939,10.5612391 7.76367458,10.5612391 L7.76367458,10.5612391 Z" id="Fill-13" fill="#1A1918"></path>
                <polygon id="Fill-14" fill="#1A1918" points="11.5569636 10.5612391 12.7333321 10.5612391 12.7333321 16.3538082 11.5569636 16.3538082"></polygon>
                <path d="M15.6221923,12.7813303 C14.9121405,12.5321295 14.7046014,12.3661456 14.7046014,12.0530702 C14.7046014,11.6891651 15.0754924,11.4131999 15.5855263,11.4131999 C15.9390244,11.4131999 16.2302374,11.548596 16.5404884,11.8794393 L17.1546444,11.1084462 C16.6471959,10.6811163 16.039856,10.4647525 15.3777521,10.4647525 C14.3064459,10.4647525 13.4899216,11.1779436 13.4899216,12.1209932 C13.4899216,12.9216744 13.869509,13.3278627 14.9772462,13.7135842 C15.4402724,13.8676479 15.6755461,13.972906 15.7947107,14.0442026 C16.0306895,14.1901695 16.1482089,14.3993362 16.1482089,14.641115 C16.1482089,15.1123024 15.7580447,15.4586645 15.2306179,15.4586645 C14.6691105,15.4586645 14.2147808,15.1896716 13.9428411,14.6845227 L13.1817859,15.3898419 C13.7259004,16.1527382 14.3781327,16.4937025 15.2766855,16.4937025 C16.5021771,16.4937025 17.3657091,15.7085401 17.3657091,14.5902852 C17.3657091,13.668827 16.9652033,13.2511683 15.6221923,12.7813303" id="Fill-15" fill="#1A1918"></path>
                <path d="M17.7366002,13.4589855 C17.7366002,15.1624574 19.133905,16.482457 20.9326559,16.482457 C21.4398693,16.482457 21.8746909,16.3866451 22.410109,16.1448664 L22.410109,14.8136213 C21.9369761,15.2686152 21.5216628,15.4480937 20.9843644,15.4480937 C19.7957739,15.4480937 18.9538654,14.6251463 18.9538654,13.4508888 C18.9538654,12.3414054 19.8230384,11.4624553 20.9326559,11.4624553 C21.492518,11.4624553 21.9202884,11.6522797 22.410109,12.1140209 L22.410109,10.7843502 C21.8927889,10.5340249 21.468309,10.4303412 20.9568649,10.4303412 C19.1684557,10.4303412 17.7366002,11.7762054 17.7366002,13.4589855" id="Fill-16" fill="#1A1918"></path>
                <polyline id="Fill-17" fill="#1A1918" points="31.9743023 14.450166 30.3600567 10.5612391 29.072985 10.5612391 31.6391372 16.5 32.2720963 16.5 34.8880766 10.5612391 33.6111115 10.5612391 31.9743023 14.450166"></polyline>
                <polyline id="Fill-18" fill="#1A1918" points="35.4237297 16.3538082 38.7713854 16.3538082 38.7713854 15.3722989 36.604799 15.3722989 36.604799 13.8087213 38.6891219 13.8087213 38.6891219 12.8274369 36.604799 12.8274369 36.604799 11.5422985 38.7713854 11.5422985 38.7713854 10.5612391 35.4237297 10.5612391 35.4237297 16.3538082"></polyline>
                <path d="M41.0771147,13.2248537 L40.7344284,13.2248537 L40.7344284,11.4728012 L41.0963879,11.4728012 C41.8339392,11.4728012 42.2290392,11.7690083 42.2290392,12.3333086 C42.2290392,12.9131278 41.8339392,13.2248537 41.0771147,13.2248537 L41.0771147,13.2248537 Z M43.4446592,12.2703337 C43.4446592,11.1855905 42.6671513,10.5612391 41.3041621,10.5612391 L39.5507736,10.5612391 L39.5507736,16.3538082 L40.7344284,16.3538082 L40.7344284,14.0248603 L40.8879086,14.0248603 L42.5188419,16.3538082 L43.9711458,16.3538082 L42.0666275,13.9124051 C42.9567189,13.7383243 43.4446592,13.1567059 43.4446592,12.2703337 L43.4446592,12.2703337 Z" id="Fill-19" fill="#1A1918"></path>
                <path d="M29.2393924,13.4724802 C29.2393924,15.1401913 27.8272801,16.4919032 26.0837633,16.4919032 C24.3407165,16.4919032 22.9283692,15.1401913 22.9283692,13.4724802 C22.9283692,11.8045441 24.3407165,10.4526073 26.0837633,10.4526073 C27.8272801,10.4526073 29.2393924,11.8045441 29.2393924,13.4724802" id="Fill-20" fill="#E7772F"></path>
            </g>
        </g>
    </g>
</svg>