<?xml version="1.0" encoding="UTF-8" standalone="no"?>
<svg width="16px" height="16px" viewBox="0 0 16 16" version="1.1" xmlns="http://www.w3.org/2000/svg" xmlns:xlink="http://www.w3.org/1999/xlink">
    <!-- Generator: Sketch 40.1 (33804) - http://www.bohemiancoding.com/sketch -->
    <title></title>
    <desc>Created with Sketch.</desc>
    <defs></defs>
    <g id="Page-1" stroke="none" stroke-width="1" fill="none" fill-rule="evenodd">
        <g id="UI-Library" transform="translate(-1066.000000, -1635.000000)" fill="#B20707">
            <path d="M1074,1635 C1075.4514,1635 1076.78992,1635.35764 1078.01562,1636.07292 C1079.24133,1636.7882 1080.2118,1637.75867 1080.92708,1638.98438 C1081.64236,1640.21008 1082,1641.5486 1082,1643 C1082,1644.4514 1081.64236,1645.78992 1080.92708,1647.01562 C1080.2118,1648.24133 1079.24133,1649.2118 1078.01562,1649.92708 C1076.78992,1650.64236 1075.4514,1651 1074,1651 C1072.5486,1651 1071.21008,1650.64236 1069.98438,1649.92708 C1068.75867,1649.2118 1067.7882,1648.24133 1067.07292,1647.01562 C1066.35764,1645.78992 1066,1644.4514 1066,1643 C1066,1641.5486 1066.35764,1640.21008 1067.07292,1638.98438 C1067.7882,1637.75867 1068.75867,1636.7882 1069.98438,1636.07292 C1071.21008,1635.35764 1072.5486,1635 1074,1635 L1074,1635 Z M1075.33333,1647.98958 L1075.33333,1646.01042 C1075.33333,1645.91319 1075.30208,1645.8316 1075.23958,1645.76562 C1075.17708,1645.69965 1075.10069,1645.66667 1075.01042,1645.66667 L1073.01042,1645.66667 C1072.92014,1645.66667 1072.84028,1645.70139 1072.77083,1645.77083 C1072.70139,1645.84028 1072.66667,1645.92014 1072.66667,1646.01042 L1072.66667,1647.98958 C1072.66667,1648.07986 1072.70139,1648.15972 1072.77083,1648.22917 C1072.84028,1648.29861 1072.92014,1648.33333 1073.01042,1648.33333 L1075.01042,1648.33333 C1075.10069,1648.33333 1075.17708,1648.30035 1075.23958,1648.23438 C1075.30208,1648.1684 1075.33333,1648.08681 1075.33333,1647.98958 L1075.33333,1647.98958 Z M1075.3125,1644.40625 L1075.5,1637.9375 C1075.5,1637.85417 1075.46528,1637.79167 1075.39583,1637.75 C1075.32639,1637.69444 1075.24306,1637.66667 1075.14583,1637.66667 L1072.85417,1637.66667 C1072.75694,1637.66667 1072.67361,1637.69444 1072.60417,1637.75 C1072.53472,1637.79167 1072.5,1637.85417 1072.5,1637.9375 L1072.67708,1644.40625 C1072.67708,1644.47569 1072.71181,1644.53646 1072.78125,1644.58854 C1072.85069,1644.64063 1072.93403,1644.66667 1073.03125,1644.66667 L1074.95833,1644.66667 C1075.05556,1644.66667 1075.13715,1644.64063 1075.20312,1644.58854 C1075.2691,1644.53646 1075.30556,1644.47569 1075.3125,1644.40625 L1075.3125,1644.40625 Z" id=""></path>
        </g>
    </g>
</svg>