<?xml version="1.0" encoding="UTF-8" standalone="no"?>
<svg width="14px" height="14px" viewBox="0 0 14 14" version="1.1" xmlns="http://www.w3.org/2000/svg" xmlns:xlink="http://www.w3.org/1999/xlink">
    <!-- Generator: Sketch 40.1 (33804) - http://www.bohemiancoding.com/sketch -->
    <title>info-icon</title>
    <desc>Created with Sketch.</desc>
    <defs></defs>
    <g id="UI" stroke="none" stroke-width="1" fill="none" fill-rule="evenodd">
        <g id="Desktop-HD-ULoad-Checkout-Flow-Checkout-9" transform="translate(-989.000000, -984.000000)" fill="#B6B6B6">
            <path d="M997.166667,995.375 L997.166667,993.625 C997.166667,993.53993 997.139323,993.470052 997.084635,993.415365 C997.029948,993.360677 996.96007,993.333333 996.875,993.333333 L995.125,993.333333 C995.03993,993.333333 994.970052,993.360677 994.915365,993.415365 C994.860677,993.470052 994.833333,993.53993 994.833333,993.625 L994.833333,995.375 C994.833333,995.46007 994.860677,995.529948 994.915365,995.584635 C994.970052,995.639323 995.03993,995.666667 995.125,995.666667 L996.875,995.666667 C996.96007,995.666667 997.029948,995.639323 997.084635,995.584635 C997.139323,995.529948 997.166667,995.46007 997.166667,995.375 L997.166667,995.375 Z M999.5,989.25 C999.5,988.715275 999.331382,988.220054 998.994141,987.764323 C998.656899,987.308591 998.236114,986.956164 997.731771,986.707031 C997.227428,986.457898 996.71094,986.333333 996.182292,986.333333 C994.705722,986.333333 993.578563,986.980462 992.800781,988.27474 C992.709635,988.420574 992.73394,988.548177 992.873698,988.657552 L994.076823,989.56901 C994.119358,989.605469 994.177083,989.623698 994.25,989.623698 C994.347223,989.623698 994.423177,989.58724 994.477865,989.514323 C994.799915,989.101126 995.061197,988.821615 995.261719,988.675781 C995.468317,988.529947 995.729599,988.457031 996.045573,988.457031 C996.337241,988.457031 996.597004,988.536024 996.82487,988.69401 C997.052736,988.851997 997.166667,989.031249 997.166667,989.231771 C997.166667,989.462675 997.105903,989.648003 996.984375,989.78776 C996.862847,989.927518 996.656251,990.064235 996.364583,990.197917 C995.981769,990.368056 995.630861,990.630858 995.311849,990.986328 C994.992837,991.341799 994.833333,991.723088 994.833333,992.130208 L994.833333,992.458333 C994.833333,992.543403 994.860677,992.613281 994.915365,992.667969 C994.970052,992.722657 995.03993,992.75 995.125,992.75 L996.875,992.75 C996.96007,992.75 997.029948,992.722657 997.084635,992.667969 C997.139323,992.613281 997.166667,992.543403 997.166667,992.458333 C997.166667,992.342881 997.231987,992.192492 997.36263,992.007161 C997.493273,991.821831 997.658853,991.671442 997.859375,991.55599 C998.05382,991.446614 998.20269,991.360026 998.30599,991.296224 C998.409289,991.232422 998.549044,991.126086 998.72526,990.977214 C998.901477,990.828341 999.036675,990.682509 999.130859,990.539714 C999.225044,990.396918 999.310112,990.213109 999.386068,989.988281 C999.462023,989.763454 999.5,989.517362 999.5,989.25 L999.5,989.25 Z M1003,991 C1003,992.269972 1002.68707,993.441184 1002.0612,994.513672 C1001.43533,995.58616 1000.58616,996.435327 999.513672,997.061198 C998.441184,997.687069 997.269972,998 996,998 C994.730028,998 993.558816,997.687069 992.486328,997.061198 C991.41384,996.435327 990.564673,995.58616 989.938802,994.513672 C989.312931,993.441184 989,992.269972 989,991 C989,989.730028 989.312931,988.558816 989.938802,987.486328 C990.564673,986.41384 991.41384,985.564673 992.486328,984.938802 C993.558816,984.312931 994.730028,984 996,984 C997.269972,984 998.441184,984.312931 999.513672,984.938802 C1000.58616,985.564673 1001.43533,986.41384 1002.0612,987.486328 C1002.68707,988.558816 1003,989.730028 1003,991 L1003,991 Z" id="info-icon"></path>
        </g>
    </g>
</svg>