<?xml version="1.0" encoding="UTF-8" standalone="no"?>
<svg width="34px" height="34px" viewBox="0 0 34 34" version="1.1" xmlns="http://www.w3.org/2000/svg" xmlns:xlink="http://www.w3.org/1999/xlink">
    <!-- Generator: Sketch 40.1 (33804) - http://www.bohemiancoding.com/sketch -->
    <title>Group</title>
    <desc>Created with Sketch.</desc>
    <defs></defs>
    <g id="UI" stroke="none" stroke-width="1" fill="none" fill-rule="evenodd">
        <g id="Mobile-ULoad-Checkout-Flow-Checkout-12" transform="translate(-360.000000, -13.000000)">
            <g id="Group" transform="translate(360.000000, 13.000000)">
                <circle id="Oval-3" fill="#1E88E5" cx="17" cy="17" r="17"></circle>
                <path d="M24.7826014,21.6442085 C24.7826014,21.8350577 24.7472595,22.0842181 24.6765746,22.3916974 C24.6058897,22.6991766 24.5316717,22.9412686 24.4539183,23.1179808 C24.3054801,23.4714052 23.8743088,23.8460295 23.1603916,24.2418648 C22.4959537,24.6023576 21.8385942,24.7826014 21.1882933,24.7826014 C20.9974442,24.7826014 20.8118991,24.7702317 20.6316527,24.745492 C20.4514063,24.7207523 20.2481903,24.6765749 20.0219987,24.6129585 C19.7958071,24.5493421 19.627933,24.4980964 19.5183715,24.4592197 C19.4088099,24.420343 19.2126623,24.3478921 18.9299228,24.2418648 C18.6471833,24.1358375 18.4740079,24.072222 18.4103916,24.0510166 C17.7176798,23.8036195 17.0991964,23.5102816 16.5549228,23.1709942 C15.6501564,22.6125837 14.7153629,21.8509656 13.7505143,20.886117 C12.7856657,19.9212684 12.0240476,18.9864749 11.4656371,18.0817085 C11.1263497,17.537435 10.8330118,16.9189516 10.5856148,16.2262398 C10.5644093,16.1626234 10.5007939,15.989448 10.3947666,15.7067085 C10.2887392,15.423969 10.2162883,15.2278214 10.1774116,15.1182599 C10.138535,15.0086983 10.0872892,14.8408242 10.0236728,14.6146326 C9.96005641,14.388441 9.91587903,14.185225 9.89113932,14.0049786 C9.86639961,13.8247322 9.85402995,13.6391871 9.85402995,13.448338 C9.85402995,12.7980371 10.0342737,12.1406776 10.3947666,11.4762398 C10.7906019,10.7623225 11.1652261,10.3311512 11.5186505,10.182713 C11.6953627,10.1049596 11.9374547,10.0307416 12.244934,9.96005673 C12.5524132,9.88937185 12.8015736,9.85402995 12.9924228,9.85402995 C13.0913816,9.85402995 13.1655996,9.86463252 13.2150791,9.88583798 C13.3423118,9.92824891 13.5296239,10.1968474 13.777021,10.6916416 C13.8547744,10.8259428 13.9608001,11.0167891 14.0951014,11.2641862 C14.2294026,11.5115833 14.3530993,11.7360044 14.4661951,11.9374563 C14.5792909,12.1389082 14.6888508,12.3279874 14.7948782,12.5046996 C14.8160836,12.5329735 14.877932,12.6213283 14.980425,12.7697666 C15.0829181,12.9182048 15.1589032,13.0436686 15.2083826,13.1461616 C15.257862,13.2486547 15.2826014,13.3493792 15.2826014,13.448338 C15.2826014,13.5897077 15.1818769,13.7664173 14.980425,13.9784719 C14.7789731,14.1905265 14.5598533,14.384907 14.323059,14.5616192 C14.0862646,14.7383314 13.8671448,14.9256435 13.6656929,15.1235612 C13.464241,15.3214789 13.3635166,15.4840516 13.3635166,15.6112844 C13.3635166,15.6749008 13.3811875,15.7544201 13.4165299,15.8498447 C13.4518724,15.9452693 13.481913,16.0177202 13.5066527,16.0671996 C13.5313924,16.116679 13.5808711,16.2014996 13.6550902,16.3216639 C13.7293093,16.4418282 13.7699525,16.5089778 13.777021,16.5231148 C14.3142261,17.4914976 14.9291753,18.3220324 15.6218871,19.0147442 C16.3145989,19.707456 17.1451337,20.3224052 18.1135166,20.8596103 C18.1276535,20.8666788 18.1948032,20.907322 18.3149674,20.9815411 C18.4351317,21.0557602 18.5199523,21.1052389 18.5694317,21.1299786 C18.6189111,21.1547183 18.6913621,21.1847589 18.7867866,21.2201014 C18.8822112,21.2554438 18.9617305,21.2731148 19.0253469,21.2731148 C19.1525797,21.2731148 19.3151525,21.1723903 19.5130701,20.9709384 C19.7109878,20.7694865 19.8982999,20.5503667 20.0750121,20.3135724 C20.2517243,20.076778 20.4461048,19.8576582 20.6581594,19.6562063 C20.870214,19.4547544 21.0469236,19.3540299 21.1882933,19.3540299 C21.2872522,19.3540299 21.3879766,19.3787693 21.4904697,19.4282487 C21.5929627,19.4777281 21.7184265,19.5537132 21.8668648,19.6562063 C22.015303,19.7586994 22.1036578,19.8205477 22.1319317,19.8417532 C22.3086439,19.9477805 22.4977231,20.0573404 22.699175,20.1704362 C22.9006269,20.283532 23.1250481,20.4072287 23.3724451,20.5415299 C23.6198422,20.6758312 23.8106885,20.7818569 23.9449898,20.8596103 C24.4397839,21.1070074 24.7083824,21.2943195 24.7507933,21.4215523 C24.7719988,21.4710317 24.7826014,21.5452497 24.7826014,21.6442085 L24.7826014,21.6442085 Z" id="phone-icon" fill="#FFFFFF" transform="translate(17.318316, 17.318316) rotate(7.000000) translate(-17.318316, -17.318316) "></path>
            </g>
        </g>
    </g>
</svg>