<?xml version="1.0" encoding="UTF-8"?>
<svg width="25px" height="46px" viewBox="0 0 25 46" version="1.1" xmlns="http://www.w3.org/2000/svg" xmlns:xlink="http://www.w3.org/1999/xlink">
    <!-- Generator: Sketch 40.3 (33839) - http://www.bohemiancoding.com/sketch -->
    <title>Artboard 2</title>
    <desc>Created with Sketch.</desc>
    <defs></defs>
    <g id="-" stroke="none" stroke-width="1" fill="none" fill-rule="evenodd">
        <g id="Artboard-2">
            <path d="M5.76923077,44.1538462 L19.2307692,44.1538462 L19.2307692,40.3076923 L5.76923077,40.3076923 L5.76923077,44.1538462 Z M5.76923077,34.5384615 L19.2307692,34.5384615 L19.2307692,28.7692308 L16.8269231,28.7692308 C16.42628,28.7692308 16.0857386,28.6290078 15.8052885,28.3485577 C15.5248383,28.0681076 15.3846154,27.7275661 15.3846154,27.3269231 L15.3846154,24.9230769 L5.76923077,24.9230769 L5.76923077,34.5384615 Z M23.0769231,35.5 C23.0769231,35.239582 22.9817718,35.0142237 22.7914663,34.8239183 C22.6011609,34.6336128 22.3758026,34.5384615 22.1153846,34.5384615 C21.8549666,34.5384615 21.6296083,34.6336128 21.4393029,34.8239183 C21.2489974,35.0142237 21.1538462,35.239582 21.1538462,35.5 C21.1538462,35.760418 21.2489974,35.9857763 21.4393029,36.1760817 C21.6296083,36.3663872 21.8549666,36.4615385 22.1153846,36.4615385 C22.3758026,36.4615385 22.6011609,36.3663872 22.7914663,36.1760817 C22.9817718,35.9857763 23.0769231,35.760418 23.0769231,35.5 L23.0769231,35.5 Z M25,35.5 L25,41.75 C25,41.880209 24.9524244,41.9928881 24.8572716,42.0880409 C24.7621189,42.1831936 24.6494398,42.2307692 24.5192308,42.2307692 L21.1538462,42.2307692 L21.1538462,44.6346154 C21.1538462,45.0352584 21.0136232,45.3757999 20.7331731,45.65625 C20.452723,45.9367001 20.1121815,46.0769231 19.7115385,46.0769231 L5.28846154,46.0769231 C4.88781851,46.0769231 4.54727704,45.9367001 4.26682692,45.65625 C3.9863768,45.3757999 3.84615385,45.0352584 3.84615385,44.6346154 L3.84615385,42.2307692 L0.480769231,42.2307692 C0.350560246,42.2307692 0.237881085,42.1831936 0.142728365,42.0880409 C0.047575646,41.9928881 0,41.880209 0,41.75 L0,35.5 C0,34.70873 0.282949895,34.0301511 0.848858173,33.4642428 C1.41476645,32.8983345 2.0933454,32.6153846 2.88461538,32.6153846 L3.84615385,32.6153846 L3.84615385,24.4423077 C3.84615385,24.0416647 3.9863768,23.7011232 4.26682692,23.4206731 C4.54727704,23.140223 4.88781851,23 5.28846154,23 L15.3846154,23 C15.7852584,23 16.2259591,23.1001593 16.7067308,23.3004808 C17.1875024,23.5008023 17.5681076,23.7411845 17.8485577,24.0216346 L20.1322115,26.3052885 C20.4126617,26.5857386 20.6530439,26.9663437 20.8533654,27.4471154 C21.0536869,27.927887 21.1538462,28.3685877 21.1538462,28.7692308 L21.1538462,32.6153846 L22.1153846,32.6153846 C22.9066546,32.6153846 23.5852335,32.8983345 24.1511418,33.4642428 C24.7170501,34.0301511 25,34.70873 25,35.5 L25,35.5 Z" id="printer-icon" fill="#3E99E9"></path>
            <path d="M5.76923077,21.1538462 L19.2307692,21.1538462 L19.2307692,17.3076923 L5.76923077,17.3076923 L5.76923077,21.1538462 Z M5.76923077,11.5384615 L19.2307692,11.5384615 L19.2307692,5.76923077 L16.8269231,5.76923077 C16.42628,5.76923077 16.0857386,5.62900781 15.8052885,5.34855769 C15.5248383,5.06810757 15.3846154,4.72756611 15.3846154,4.32692308 L15.3846154,1.92307692 L5.76923077,1.92307692 L5.76923077,11.5384615 Z M23.0769231,12.5 C23.0769231,12.239582 22.9817718,12.0142237 22.7914663,11.8239183 C22.6011609,11.6336128 22.3758026,11.5384615 22.1153846,11.5384615 C21.8549666,11.5384615 21.6296083,11.6336128 21.4393029,11.8239183 C21.2489974,12.0142237 21.1538462,12.239582 21.1538462,12.5 C21.1538462,12.760418 21.2489974,12.9857763 21.4393029,13.1760817 C21.6296083,13.3663872 21.8549666,13.4615385 22.1153846,13.4615385 C22.3758026,13.4615385 22.6011609,13.3663872 22.7914663,13.1760817 C22.9817718,12.9857763 23.0769231,12.760418 23.0769231,12.5 L23.0769231,12.5 Z M25,12.5 L25,18.75 C25,18.880209 24.9524244,18.9928881 24.8572716,19.0880409 C24.7621189,19.1831936 24.6494398,19.2307692 24.5192308,19.2307692 L21.1538462,19.2307692 L21.1538462,21.6346154 C21.1538462,22.0352584 21.0136232,22.3757999 20.7331731,22.65625 C20.452723,22.9367001 20.1121815,23.0769231 19.7115385,23.0769231 L5.28846154,23.0769231 C4.88781851,23.0769231 4.54727704,22.9367001 4.26682692,22.65625 C3.9863768,22.3757999 3.84615385,22.0352584 3.84615385,21.6346154 L3.84615385,19.2307692 L0.480769231,19.2307692 C0.350560246,19.2307692 0.237881085,19.1831936 0.142728365,19.0880409 C0.047575646,18.9928881 0,18.880209 0,18.75 L0,12.5 C0,11.70873 0.282949895,11.0301511 0.848858173,10.4642428 C1.41476645,9.89833451 2.0933454,9.61538462 2.88461538,9.61538462 L3.84615385,9.61538462 L3.84615385,1.44230769 C3.84615385,1.04166466 3.9863768,0.701123197 4.26682692,0.420673077 C4.54727704,0.140222957 4.88781851,0 5.28846154,0 L15.3846154,0 C15.7852584,0 16.2259591,0.100159255 16.7067308,0.300480769 C17.1875024,0.500802284 17.5681076,0.741184495 17.8485577,1.02163462 L20.1322115,3.30528846 C20.4126617,3.58573858 20.6530439,3.96634375 20.8533654,4.44711538 C21.0536869,4.92788702 21.1538462,5.36858774 21.1538462,5.76923077 L21.1538462,9.61538462 L22.1153846,9.61538462 C22.9066546,9.61538462 23.5852335,9.89833451 24.1511418,10.4642428 C24.7170501,11.0301511 25,11.70873 25,12.5 L25,12.5 Z" id="printer-icon" fill="#D6D6D6"></path>
        </g>
    </g>
</svg>