<?xml version="1.0" encoding="UTF-8" standalone="no"?>
<svg width="26px" height="24px" viewBox="0 0 26 24" version="1.1" xmlns="http://www.w3.org/2000/svg" xmlns:xlink="http://www.w3.org/1999/xlink">
    <!-- Generator: Sketch 40.1 (33804) - http://www.bohemiancoding.com/sketch -->
    <title>printer-icon</title>
    <desc>Created with Sketch.</desc>
    <defs></defs>
    <g id="UI-Library" stroke="none" stroke-width="1" fill="none" fill-rule="evenodd">
        <g transform="translate(-380.000000, -824.000000)" id="printer-icon" fill="#D6D6D6">
            <path d="M385.785714,845.214286 L399.285714,845.214286 L399.285714,841.357143 L385.785714,841.357143 L385.785714,845.214286 Z M385.785714,835.571429 L399.285714,835.571429 L399.285714,829.785714 L396.875,829.785714 C396.473212,829.785714 396.131698,829.645091 395.850446,829.363839 C395.569195,829.082588 395.428571,828.741073 395.428571,828.339286 L395.428571,825.928571 L385.785714,825.928571 L385.785714,835.571429 Z M403.142857,836.535714 C403.142857,836.274552 403.047434,836.04855 402.856585,835.857701 C402.665736,835.666852 402.439733,835.571429 402.178571,835.571429 C401.917409,835.571429 401.691407,835.666852 401.500558,835.857701 C401.309709,836.04855 401.214286,836.274552 401.214286,836.535714 C401.214286,836.796876 401.309709,837.022879 401.500558,837.213728 C401.691407,837.404577 401.917409,837.5 402.178571,837.5 C402.439733,837.5 402.665736,837.404577 402.856585,837.213728 C403.047434,837.022879 403.142857,836.796876 403.142857,836.535714 L403.142857,836.535714 Z M405.071429,836.535714 L405.071429,842.803571 C405.071429,842.934152 405.023717,843.047154 404.928292,843.142578 C404.832868,843.238003 404.719867,843.285714 404.589286,843.285714 L401.214286,843.285714 L401.214286,845.696429 C401.214286,846.098216 401.073662,846.439731 400.792411,846.720982 C400.511159,847.002234 400.169645,847.142857 399.767857,847.142857 L385.303571,847.142857 C384.901784,847.142857 384.560269,847.002234 384.279018,846.720982 C383.997766,846.439731 383.857143,846.098216 383.857143,845.696429 L383.857143,843.285714 L380.482143,843.285714 C380.351562,843.285714 380.238561,843.238003 380.143136,843.142578 C380.047712,843.047154 380,842.934152 380,842.803571 L380,836.535714 C380,835.742184 380.283758,835.061666 380.851283,834.494141 C381.418809,833.926615 382.099326,833.642857 382.892857,833.642857 L383.857143,833.642857 L383.857143,825.446429 C383.857143,825.044641 383.997766,824.703126 384.279018,824.421875 C384.560269,824.140624 384.901784,824 385.303571,824 L395.428571,824 C395.830359,824 396.272319,824.100445 396.754464,824.301339 C397.23661,824.502233 397.618302,824.743302 397.899554,825.024554 L400.189732,827.314732 C400.470984,827.595984 400.712053,827.977676 400.912946,828.459821 C401.11384,828.941967 401.214286,829.383927 401.214286,829.785714 L401.214286,833.642857 L402.178571,833.642857 C402.972102,833.642857 403.65262,833.926615 404.220145,834.494141 C404.78767,835.061666 405.071429,835.742184 405.071429,836.535714 L405.071429,836.535714 Z"></path>
        </g>
    </g>
</svg>